<?xml version="1.0" encoding="iso-8859-1"?>
<svg version="1.1" id="Layer_1" xmlns="http://www.w3.org/2000/svg" xmlns:xlink="http://www.w3.org/1999/xlink" x="0px" y="0px"
	 viewBox="0 0 512 512" style="enable-background:new 0 0 512 512;" xml:space="preserve">
<g>
	<g>
		<path d="M255.633,0C145.341,0.198,55.994,89.667,55.994,200.006v278.66c0,14.849,17.953,22.285,28.453,11.786l38.216-39.328
			l54.883,55.994c6.51,6.509,17.063,6.509,23.572,0L256,451.124l54.883,55.994c6.509,6.509,17.062,6.509,23.571,0l54.884-55.994
			l38.216,39.327c10.499,10.499,28.453,3.063,28.453-11.786V201.719C456.006,91.512,365.84-0.197,255.633,0z M172.664,266.674
			c-27.572,0-50.001-22.429-50.001-50.001s22.43-50.001,50.001-50.001s50.001,22.43,50.001,50.001S200.236,266.674,172.664,266.674z
			 M339.336,266.674c-27.572,0-50.001-22.429-50.001-50.001s22.43-50.001,50.001-50.001s50.001,22.43,50.001,50.001
			S366.908,266.674,339.336,266.674z"/>
	</g>
</g>
<g>
</g>
<g>
</g>
<g>
</g>
<g>
</g>
<g>
</g>
<g>
</g>
<g>
</g>
<g>
</g>
<g>
</g>
<g>
</g>
<g>
</g>
<g>
</g>
<g>
</g>
<g>
</g>
<g>
</g>
</svg>
