<svg width="1934" height="356" viewBox="0 0 1934 356" fill="none" xmlns="http://www.w3.org/2000/svg">
<path d="M0.2 0H37.5V160.5H0.2V0Z" fill="white"/>
<path d="M60.4 0H100.9L155.5 82.6C163.2 94 164.9 96.8 171.4 108.3L172.1 108.1C171.2 94.3 171 90.8 171 76.2V0H208.3V160.5H166L113.2 80.9C105.4 69 103.8 66.4 97.3 55L96.6 55.4C97.5 69 97.7 72.4 97.7 87.3V160.5H60.4V0Z" fill="white"/>
<path d="M315.9 0C340.9 0 358.3 6.7 370.1 20.7C381.5 34.5 389.4 58.5 389.4 80.3C389.4 104.3 381.9 126 368.4 141.4C357.3 153.9 340.9 160.6 321.5 160.6H235V0H315.9ZM312.7 127.1C335.2 127.1 349.1 109.4 349.1 80.7C349.1 53.5 334.1 34.1 313.3 34.1H276.4C274.4 34.1 273.5 33.9 271.6 33C272.1 35.6 272.3 36.2 272.3 38.8V127.1H312.7Z" fill="white"/>
<path d="M405.6 0H535.9V34.5H442.8V52.6C442.8 55 442.6 55.8 442.1 58.2C444.1 57.6 444.6 57.3 446.7 57.3H520.7V91.8H442.8V121.1C442.8 123.5 442.6 124.3 442.1 126.7C444.1 126.1 444.6 125.8 446.7 125.8H536.4V160.3H405.6V0Z" fill="white"/>
<path d="M632.4 0C654.7 0 667 2.2 676 7.6C688.5 15.2 697.4 33.7 697.4 52.3C697.4 72.6 689.7 89 676.7 96.5C668 101.5 656.6 103.6 638.2 103.6H596.3C594.2 103.6 593.6 103.4 591.7 102.7C592.2 105.1 592.4 105.7 592.4 108.3V160.5H555.1V0H632.4ZM596.4 34.1C594.3 34.1 593.7 33.9 591.8 33.2C592.3 35.6 592.5 36.2 592.5 38.8V63.2C592.5 65.8 592.3 66.4 591.8 68.8C593.8 68.2 594.3 67.9 596.4 67.9H634.6C651.7 67.9 659 62.9 659 51.1C659 39.2 652 34.1 636 34.1H596.4Z" fill="white"/>
<path d="M714.9 0H845.2V34.5H752.1V52.6C752.1 55 751.9 55.8 751.4 58.2C753.4 57.6 753.9 57.3 756 57.3H830V91.8H752.1V121.1C752.1 123.5 751.9 124.3 751.4 126.7C753.4 126.1 753.9 125.8 756 125.8H845.7V160.3H714.9V0Z" fill="white"/>
<path d="M905 0L959.6 82.6C967.3 94 969 96.8 975.5 108.3L976.2 108.1C975.3 94.3 975.1 90.8 975.1 76.2V0H1012.4V160.5H970L917.2 80.9C909.4 69 907.8 66.4 901.3 55L900.6 55.4C901.5 69 901.7 72.4 901.7 87.3V160.5H864.4V0H905Z" fill="white"/>
<path d="M1120 0C1145 0 1162.4 6.7 1174.2 20.7C1185.6 34.5 1193.5 58.5 1193.5 80.3C1193.5 104.3 1186 126 1172.5 141.4C1161.4 153.9 1145 160.6 1125.6 160.6H1039V0H1120ZM1116.8 127.1C1139.3 127.1 1153.2 109.4 1153.2 80.7C1153.2 53.5 1138.2 34.1 1117.4 34.1H1080.5C1078.5 34.1 1077.6 33.9 1075.7 33C1076.2 35.6 1076.4 36.2 1076.4 38.8V127.1H1116.8Z" fill="white"/>
<path d="M1209.6 0H1340V34.5H1246.9V52.6C1246.9 55 1246.7 55.8 1246.2 58.2C1248.2 57.6 1248.7 57.3 1250.8 57.3H1324.8V91.8H1246.9V121.1C1246.9 123.5 1246.7 124.3 1246.2 126.7C1248.2 126.1 1248.7 125.8 1250.8 125.8H1340.5V160.3H1209.6V0Z" fill="white"/>
<path d="M1359.2 0H1399.7L1454.3 82.6C1462 94 1463.7 96.8 1470.2 108.3L1470.9 108.1C1470 94.3 1469.8 90.8 1469.8 76.2V0H1507.1V160.5H1464.8L1412 80.9C1404.2 69 1402.6 66.4 1396.1 55L1395.4 55.4C1396.3 69 1396.5 72.4 1396.5 87.3V160.5H1359.2V0Z" fill="white"/>
<path d="M1522.9 0H1661.1V35.2H1614.7C1612.6 35.2 1612 35 1610.1 34.3C1610.6 36.7 1610.8 37.3 1610.8 39.9V160.5H1573.5V39.9C1573.5 37.3 1573.7 36.7 1574.2 34.3C1572.2 34.9 1571.7 35.2 1569.6 35.2H1522.9V0Z" fill="white"/>
<path d="M0 192H101.6C129.8 192 144.7 205.4 144.7 230.4C144.7 246.6 139.7 255.6 126.7 263.2V263.8C143.3 273.3 150.8 286 150.8 305.2C150.8 319.7 144.9 333.3 134.2 342.3C125.8 349.6 117.3 352.4 102.6 352.4H0V192ZM41.2 226.1C39.1 226.1 38.5 225.9 36.6 225.2C37.1 227.6 37.3 228.2 37.3 230.8V245.7C37.3 248.3 37.1 248.9 36.6 251.3C38.6 250.7 39.3 250.4 41.2 250.4H89.2C99.2 250.4 102.9 247.2 102.9 239C102.9 230.6 97.7 226.1 88.5 226.1H41.2ZM37.3 313.3C37.3 315.9 37.1 316.5 36.6 318.9C38.6 318.3 39.1 318 41.2 318H89.3C102.5 318 108 312.8 108 300.5C108 288.6 101.8 282.8 89.3 282.8H37.3V313.3Z" fill="white"/>
<path d="M331.1 269.7C331.1 324.9 301 355.8 247.1 355.8C222 355.8 203.1 350 189.2 337.7C172.4 322.8 163.3 300.2 163.3 273C163.3 220.3 195.6 188.8 249.6 188.8C299.5 188.8 331.1 220 331.1 269.7ZM205.9 270.8C205.9 303 222.7 324.7 247.6 324.7C272.9 324.7 288.4 305.1 288.4 272.7C288.4 239.7 273.4 220.5 247.4 220.5C221.6 220.5 205.9 239.5 205.9 270.8Z" fill="white"/>
<path d="M514.7 269.7C514.7 324.9 484.6 355.8 430.7 355.8C405.6 355.8 386.7 350 372.8 337.7C356 322.8 346.9 300.2 346.9 273C346.9 220.3 379.2 188.8 433.2 188.8C483.2 188.8 514.7 220 514.7 269.7ZM389.6 270.8C389.6 303 406.4 324.7 431.3 324.7C456.6 324.7 472.1 305.1 472.1 272.7C472.1 239.7 457.1 220.5 431.1 220.5C405.2 220.5 389.6 239.5 389.6 270.8Z" fill="white"/>
<path d="M522.6 192H660.8V227.2H614.4C612.3 227.2 611.7 227 609.8 226.3C610.3 228.7 610.5 229.3 610.5 231.9V352.5H573.2V231.9C573.2 229.3 573.4 228.7 573.9 226.3C571.9 226.9 571.4 227.2 569.3 227.2H522.6V192Z" fill="white"/>
<path d="M704.2 294.5C707.6 315 719 323.8 741.6 323.8C761.2 323.8 770.8 318.8 770.8 308.7C770.8 300.1 763.7 294.7 749.2 292.5L720.3 288C686.2 282.4 668.6 266.6 668.6 241.2C668.6 225.4 678.9 208.4 693.4 200C706.1 192.7 721.7 188.8 739 188.8C763.6 188.8 784.6 197.4 798 212.5C805 220.5 807.6 226.3 810.5 239.3L770.4 249.7C765.1 226.2 757.6 219.7 736 219.7C719.1 219.7 709.4 226 709.4 237.2C709.4 246 715.8 250.4 733.6 253.4L759.3 257.7C774.1 260.3 788.2 265.7 796.9 272.4C806 279.3 812.2 293.1 812.2 305.8C812.2 320.5 804.5 335.6 793.3 343.6C780.6 352.7 766.9 355.9 741.2 355.9C712.1 355.9 699.7 353.1 687.4 343.8C674.7 334.1 668 323.5 663.3 305.2L704.2 294.5Z" fill="white"/>
<path d="M819.4 192H957.6V227.2H911.2C909.1 227.2 908.5 227 906.6 226.3C907.1 228.7 907.3 229.3 907.3 231.9V352.5H870V231.9C870 229.3 870.2 228.7 870.7 226.3C868.7 226.9 868.2 227.2 866.1 227.2H819.4V192Z" fill="white"/>
<path d="M972.7 192H1068.6C1088.7 192 1100.7 196.5 1109.6 207.5C1116.6 216.1 1120.3 228 1120.3 241.8C1120.3 267 1110 281.9 1088 288.6C1091.6 293.3 1092.5 294.6 1095.7 300L1127.8 352.4H1080.9L1044.4 292.2H1013.9C1011.8 292.2 1011.2 292 1009.3 291.3C1009.8 293.7 1010 294.3 1010 296.9V352.4H972.7V192ZM1013.9 226.1C1012.1 226.1 1011.2 225.9 1009.3 225.2C1009.8 227.6 1010 228.2 1010 230.8V253.5C1010 255.9 1009.8 256.7 1009.3 259.1C1011.3 258.5 1011.8 258.2 1013.9 258.2H1059.7C1071.1 258.2 1075.2 257.6 1078.8 255C1082.7 252.2 1084.9 247.7 1084.9 242.1C1084.9 230.2 1080.3 226.1 1066.9 226.1H1013.9Z" fill="white"/>
<path d="M1191.5 192H1235.7L1294.2 352.5H1253.2L1242.5 320.8H1183.8L1173.1 352.5H1132.3L1191.5 192ZM1220.9 291.3C1227 291.3 1228.2 291.3 1233.6 291.9C1231.1 286.3 1230.6 284.8 1228.3 278.1L1221.7 258.2C1217.6 246.1 1216.7 243.1 1213.7 231.2H1213C1210 243.1 1208.9 246.3 1205 258.2L1198.4 278.1C1196.1 285 1195.5 286.3 1193.1 291.9C1198.4 291.3 1199.7 291.3 1205.8 291.3H1220.9Z" fill="white"/>
<path d="M1306.5 192H1383.7C1406 192 1418.3 194.2 1427.4 199.6C1439.9 207.2 1448.8 225.7 1448.8 244.3C1448.8 264.6 1441.1 281 1428.1 288.5C1419.4 293.5 1408 295.6 1389.6 295.6H1347.7C1345.6 295.6 1345 295.4 1343.1 294.7C1343.6 297.1 1343.8 297.7 1343.8 300.3V352.5H1306.5V192ZM1347.6 226.1C1345.5 226.1 1344.9 225.9 1343 225.2C1343.5 227.6 1343.7 228.2 1343.7 230.8V255.2C1343.7 257.8 1343.5 258.4 1343 260.8C1345 260.2 1345.5 259.9 1347.6 259.9H1385.8C1402.9 259.9 1410.2 254.9 1410.2 243.1C1410.2 231.2 1403.2 226.1 1387.2 226.1H1347.6Z" fill="white"/>
<path d="M1466.2 192H1543.4C1565.7 192 1578 194.2 1587.1 199.6C1599.6 207.2 1608.5 225.7 1608.5 244.3C1608.5 264.6 1600.8 281 1587.8 288.5C1579.1 293.5 1567.7 295.6 1549.3 295.6H1507.4C1505.3 295.6 1504.7 295.4 1502.8 294.7C1503.3 297.1 1503.5 297.7 1503.5 300.3V352.5H1466.2V192ZM1507.4 226.1C1505.3 226.1 1504.7 225.9 1502.8 225.2C1503.3 227.6 1503.5 228.2 1503.5 230.8V255.2C1503.5 257.8 1503.3 258.4 1502.8 260.8C1504.8 260.2 1505.3 259.9 1507.4 259.9H1545.6C1562.7 259.9 1570 254.9 1570 243.1C1570 231.2 1563 226.1 1547 226.1H1507.4Z" fill="white"/>
<path d="M1756.2 192V226.5H1663.1V244.6C1663.1 247 1662.9 247.8 1662.4 250.2C1664.4 249.6 1664.9 249.3 1667 249.3H1741V283.8H1663.1V313.1C1663.1 315.5 1662.9 316.3 1662.4 318.7C1664.4 318.1 1664.9 317.8 1667 317.8H1756.7V352.3H1625.8V192H1756.2Z" fill="white"/>
<path d="M1859.9 192C1884.9 192 1902.3 198.7 1914.1 212.7C1925.5 226.5 1933.4 250.5 1933.4 272.3C1933.4 296.3 1925.9 318 1912.4 333.4C1901.3 345.9 1884.9 352.6 1865.5 352.6H1779V192H1859.9ZM1856.6 319.1C1879.1 319.1 1893 301.4 1893 272.7C1893 245.5 1878 226.1 1857.2 226.1H1820.3C1818.3 226.1 1817.4 225.9 1815.5 225C1816 227.6 1816.2 228.2 1816.2 230.8V319.1H1856.6Z" fill="white"/>
<path d="M1788 3.19995H1750.5V163.2H1788V3.19995Z" fill="white"/>
<path d="M1849.33 101.962V64.4618L1689.33 64.4618V101.962L1849.33 101.962Z" fill="white"/>
</svg>
