<svg xmlns="http://www.w3.org/2000/svg" width="943" height="165" fill="none"><path fill="#013293" d="m92.55 7.4-4.85-.35c-.86 0-1.55-.52-1.73-1.21l-1.9-4.5c-.7-1.73-3.12-1.73-3.98 0l-1.9 4.5c-.36.7-1.05 1.21-1.74 1.21l-4.85.35a2.08 2.08 0 0 0-1.21 3.63l3.8 3.12c.53.52.87 1.39.7 2.08l-1.21 4.85a2.04 2.04 0 0 0 3.12 2.25l4.15-2.6c.7-.35 1.56-.35 2.25 0l4.16 2.6c1.56 1.04 3.63-.52 3.11-2.25l-1.2-4.68c-.18-.7 0-1.56.69-2.08l3.8-3.11c1.39-1.22.7-3.64-1.2-3.81ZM55.5 21.6c-.52-.52-.7-1.39-.52-2.08l1.56-4.68c.69-1.73-1.22-3.46-2.95-2.6l-4.5 2.08c-.7.35-1.56.18-2.25-.17l-3.64-2.94c-1.56-1.22-3.63.17-3.46 1.9l.7 4.85c.17.87-.18 1.56-.87 2.08l-3.99 2.77c-1.55 1.04-1.04 3.46.87 3.8l4.85.87c.7.18 1.38.7 1.56 1.56l1.38 4.68c.52 1.73 2.95 2.08 3.81.34l2.43-4.33c.34-.69 1.03-1.03 1.9-1.03l4.85.17c1.9 0 2.94-2.25 1.56-3.64l-3.3-3.63ZM13.94 47.4c.52.69.52 1.55.17 2.25l-2.08 4.5c-.86 1.73.87 3.46 2.6 2.94l4.68-1.56c.69-.34 1.56 0 2.08.52l3.63 3.3c1.39 1.2 3.64.34 3.64-1.56l-.18-4.85c0-.87.35-1.56 1.04-1.9l4.33-2.43c1.73-.87 1.39-3.3-.34-3.81l-4.68-1.39a2.34 2.34 0 0 1-1.56-1.55L26.41 37c-.35-1.9-2.77-2.43-3.81-.87l-2.77 3.98c-.52.7-1.22 1.04-2.08.87l-4.85-.7c-1.9-.17-3.12 1.91-1.9 3.47l2.94 3.64Zm.17 42.77c.52-.52 1.39-.87 2.08-.7l4.85 1.22a2.04 2.04 0 0 0 2.25-3.12l-2.6-4.16a2.57 2.57 0 0 1 0-2.25l2.6-4.15c1.04-1.56-.52-3.64-2.25-3.12l-4.85 1.21c-.7.17-1.56 0-2.08-.7L11 70.44c-1.22-1.39-3.64-.7-3.64 1.2L7 76.5c0 .86-.52 1.56-1.2 1.73l-4.51 1.9c-1.73.7-1.73 3.12 0 3.99L5.8 86c.7.35 1.21 1.04 1.21 1.73l.35 4.85A2.08 2.08 0 0 0 11 93.8l3.11-3.63Zm19.74 25.97-4.33-2.42c-.69-.35-1.04-1.04-1.04-1.9l.18-4.86c0-1.9-2.25-2.94-3.64-1.56l-3.63 3.3c-.52.51-1.39.69-2.08.51l-4.68-1.55c-1.73-.7-3.46 1.2-2.6 2.94l2.08 4.5c.35.7.18 1.56-.17 2.25L11 121c-1.22 1.56.17 3.64 1.9 3.46l4.85-.7c.86-.16 1.56.18 2.08.88l2.77 3.98c1.04 1.56 3.46 1.04 3.8-.87l.87-4.85c.18-.86.7-1.38 1.56-1.56l4.68-1.38c1.73-.52 2.07-2.94.34-3.81Zm23.38 19.57-4.85.17c-.87 0-1.56-.35-1.9-1.04l-2.43-4.33c-.86-1.73-3.29-1.38-3.8.35l-1.4 4.67c-.17.7-.86 1.39-1.55 1.56l-4.85.87c-1.9.34-2.42 2.77-.87 3.8l3.99 2.78c.69.52 1.04 1.21.86 2.08l-.69 4.84a2.13 2.13 0 0 0 3.46 1.9l3.99-2.94c.69-.51 1.55-.51 2.25-.17l4.5 2.08c1.73.87 3.46-.87 2.94-2.6l-1.56-4.67c-.34-.7 0-1.56.52-2.08l3.3-3.64c1.03-1.56 0-3.8-1.91-3.63Zm32.73 14.37c-.52-.52-.87-1.39-.7-2.08l1.21-4.85a2.04 2.04 0 0 0-3.11-2.25l-4.16 2.6c-.69.34-1.56.34-2.25 0l-4.15-2.6c-1.56-1.04-3.64.52-3.12 2.25l1.21 4.85c.17.7 0 1.56-.7 2.08l-3.97 3.12c-1.39 1.2-.7 3.63 1.2 3.63l4.86.35c.86 0 1.55.52 1.73 1.21l1.9 4.5c.7 1.73 3.12 1.73 3.98 0l1.91-4.5c.35-.7 1.04-1.21 1.73-1.21l4.85-.35a2.07 2.07 0 0 0 1.21-3.63l-3.63-3.12Zm37.74-12.3-4.84-.86c-.7-.17-1.39-.7-1.56-1.56l-1.56-4.68c-.52-1.73-2.94-2.07-3.81-.34l-2.43 4.33c-.34.7-1.03 1.04-1.9 1.04l-4.85-.18c-1.9 0-2.94 2.25-1.56 3.64l3.3 3.64c.51.52.69 1.38.51 2.07l-1.56 4.68c-.69 1.73 1.22 3.46 2.95 2.6l4.5-2.08c.7-.35 1.56-.17 2.25.17l3.98 2.95c1.56 1.2 3.64-.18 3.47-1.9l-1.04-4.86c-.17-.86.17-1.56.86-2.07l3.99-2.78c1.56-1.03 1.03-3.46-.7-3.8Zm22.34-20.77a2.13 2.13 0 0 1-.17-2.26l2.08-4.5c.86-1.73-.87-3.46-2.6-2.94l-4.68 1.56c-.69.34-1.55 0-2.07-.52l-3.64-3.3c-1.39-1.2-3.64-.34-3.64 1.57l.18 4.84c0 .87-.35 1.56-1.04 1.91l-4.33 2.42c-1.73.87-1.39 3.3.34 3.81l4.68 1.39c.7.17 1.38.86 1.56 1.56l.86 4.84c.35 1.91 2.77 2.43 3.81.87l2.77-3.98c.52-.7 1.22-1.04 2.08-.87l4.85.7c1.9.17 3.12-1.9 1.9-3.47l-2.94-3.63Zm12.81-36.71-4.5-1.9c-.69-.35-1.21-1.05-1.21-1.74l-.35-4.85a2.08 2.08 0 0 0-3.63-1.21l-3.12 3.8c-.52.53-1.38.87-2.08.7l-4.84-1.21a2.04 2.04 0 0 0-2.26 3.12l2.6 4.15c.35.7.35 1.56 0 2.25l-2.6 4.16c-1.04 1.56.52 3.64 2.25 3.12l4.85-1.22c.7-.17 1.56 0 2.08.7l3.12 3.8c1.21 1.4 3.63.7 3.63-1.2l.35-4.85c0-.87.52-1.56 1.21-1.74l4.5-1.9c1.9-.87 1.9-3.3 0-3.98Zm-32.72-32.04 4.33 2.43c.69.34 1.04 1.04 1.04 1.9l-.18 4.85c0 1.9 2.25 2.94 3.64 1.56l3.63-3.3c.53-.51 1.4-.68 2.08-.51l4.68 1.56c1.73.69 3.46-1.22 2.6-2.95l-2.08-4.5c-.35-.7-.18-1.56.17-2.25l2.95-3.98c1.2-1.56-.18-3.64-1.91-3.47l-4.85 1.04c-.86.18-1.56-.17-2.08-.86l-2.77-3.98c-1.04-1.56-3.46-1.04-3.8.86l-.87 4.85c-.18.87-.7 1.38-1.56 1.56l-4.68 1.38c-1.73.52-2.07 2.95-.34 3.81ZM106.75 28.7l4.85-.18c.87 0 1.56.35 1.9 1.04l2.43 4.33c.86 1.73 3.29 1.39 3.8-.35l1.4-4.67c.17-.7.86-1.39 1.55-1.56l4.85-.87c1.9-.34 2.43-2.77.87-3.8l-3.99-2.78c-.69-.52-1.03-1.2-.86-2.07l.7-4.85a2.13 2.13 0 0 0-3.47-1.9l-3.98 2.94c-.7.52-1.56.52-2.26.17l-4.5-2.08c-1.73-.86-3.46.87-2.94 2.6l1.56 4.67c.34.7 0 1.56-.52 2.08l-3.3 3.64c-1.03 1.56 0 3.8 1.91 3.64ZM917.7 121.43a29.32 29.32 0 0 1-14.24-3.4 24.12 24.12 0 0 1-9.63-9.85c-2.27-4.3-3.4-9.5-3.4-15.55 0-5.55 1.13-10.48 3.4-14.79a24.85 24.85 0 0 1 9.63-9.96 26.67 26.67 0 0 1 13.8-3.62c5.33 0 9.93 1.2 13.8 3.62a22.59 22.59 0 0 1 8.87 10.07c2.05 4.31 3.07 9.35 3.07 15.12v2.95h-38.88c0 2.78.58 5.3 1.75 7.56a13.74 13.74 0 0 0 4.82 5.37 12.68 12.68 0 0 0 7.01 1.97c3 0 5.51-.77 7.56-2.3a9.84 9.84 0 0 0 3.83-6.57h13.58a19.95 19.95 0 0 1-3.83 9.96c-2.12 2.92-5 5.22-8.65 6.9a29.56 29.56 0 0 1-12.49 2.52Zm11.61-35.04c-.15-3.65-1.31-6.58-3.5-8.77-2.2-2.26-5.08-3.4-8.66-3.4-3.57 0-6.57 1.14-8.98 3.4a13.46 13.46 0 0 0-4.16 8.77h25.3ZM834.04 66.01h14.35l11.72 35.27a51.9 51.9 0 0 1 1.97 6.9 57.4 57.4 0 0 1 1.86-6.9l11.6-35.27h13.8l-19.6 53.45H854.2l-20.15-53.45ZM815.52 66.01h13.37v53.45h-13.37V66.01Zm0 42.83h13.37v10.62h-13.37v-10.62Zm0-42.83h6.69v10.63h-6.69V66Zm-.32-22.12h13.9v14.02h-13.9V43.89ZM798.92 120.45c-5.77 0-10.11-1.46-13.03-4.38s-4.38-7.34-4.38-13.26V76.64h-12.16V66h12.15V46.74h13.37V66H808v10.63h-13.14v24.2c0 2.92.62 5.15 1.86 6.68 1.24 1.46 3.25 2.2 6.02 2.2 1.39 0 2.74-.11 4.05-.33v10.07c-.73.22-1.86.44-3.4.66-1.45.22-2.95.33-4.48.33ZM735.24 121.43c-3.14 0-6.13-.65-8.98-1.97a17.86 17.86 0 0 1-6.9-5.8 15.78 15.78 0 0 1-2.52-8.87c0-5.63 1.83-9.75 5.48-12.38 3.72-2.7 8.83-4.5 15.33-5.37l7.67-.98c2.11-.3 3.61-.8 4.49-1.54.95-.8 1.42-1.9 1.42-3.28 0-1.97-.8-3.62-2.4-4.93-1.54-1.39-3.66-2.08-6.36-2.08-3.07 0-5.55.8-7.45 2.4-1.9 1.61-3 3.84-3.28 6.69h-13.8c.29-3.72 1.46-7.01 3.5-9.86a20.3 20.3 0 0 1 8.21-6.79c3.51-1.6 7.52-2.4 12.05-2.4 5.33 0 9.68.94 13.03 2.84a16.18 16.18 0 0 1 7.45 8c1.6 3.5 2.41 7.8 2.41 12.92v31.43h-12.37v-2.19c0-1.46.18-3.17.54-5.15a17.06 17.06 0 0 1-6.68 6.8c-2.84 1.67-6.46 2.51-10.84 2.51Zm3.62-9.85c2.33 0 4.49-.55 6.46-1.65 1.97-1.1 3.5-2.59 4.6-4.49a12.86 12.86 0 0 0 1.75-6.68v-5.8c-.58.5-1.35.95-2.3 1.31-.95.3-2.3.62-4.05.99l-4.38.87c-3.44.66-6.07 1.61-7.89 2.85a6.07 6.07 0 0 0-2.63 5.26c0 2.26.8 4.05 2.41 5.37a9.2 9.2 0 0 0 6.02 1.97ZM660.49 66.01h13.36v2.41c0 1.68-.15 3.44-.44 5.26a18.7 18.7 0 0 1 6.35-6.9c2.7-1.68 6.06-2.52 10.08-2.52 3.87 0 7.23.88 10.07 2.63 2.85 1.75 5 4.24 6.47 7.45 1.53 3.21 2.3 7 2.3 11.39v33.73H695.3V87.7c0-3.94-.9-7.05-2.73-9.3-1.76-2.35-4.2-3.51-7.34-3.51-2.12 0-4.05.58-5.8 1.75a12.2 12.2 0 0 0-4.17 4.82 15.21 15.21 0 0 0-1.42 6.68v31.32h-13.36V66.01ZM622.25 66.01h13.36v4.06c0 1.97-.15 3.83-.44 5.58a22.51 22.51 0 0 1 6.24-8.21c2.56-2.12 5.7-3.18 9.42-3.18 1.02 0 1.97.11 2.85.33v12.92c-1.17-.29-2.45-.43-3.83-.43a16 16 0 0 0-7.45 1.64 11.2 11.2 0 0 0-5.04 5.04c-1.17 2.33-1.75 5.4-1.75 9.2v26.5h-13.36V66.01ZM588.42 121.43a29.32 29.32 0 0 1-14.23-3.4 24.12 24.12 0 0 1-9.64-9.85c-2.26-4.3-3.4-9.5-3.4-15.55 0-5.55 1.13-10.48 3.4-14.79a24.85 24.85 0 0 1 9.64-9.96 26.67 26.67 0 0 1 13.8-3.62c5.33 0 9.93 1.2 13.8 3.62a22.58 22.58 0 0 1 8.87 10.07c2.04 4.31 3.06 9.35 3.06 15.12v2.95h-38.88c0 2.78.59 5.3 1.76 7.56a13.73 13.73 0 0 0 4.81 5.37 12.68 12.68 0 0 0 7.01 1.97c3 0 5.52-.77 7.56-2.3a9.84 9.84 0 0 0 3.84-6.57h13.57a19.95 19.95 0 0 1-3.83 9.96c-2.11 2.92-5 5.22-8.65 6.9a29.57 29.57 0 0 1-12.49 2.52Zm11.61-35.04c-.14-3.65-1.31-6.58-3.5-8.77-2.2-2.26-5.08-3.4-8.65-3.4-3.58 0-6.58 1.14-8.98 3.4a13.45 13.45 0 0 0-4.17 8.77h25.3ZM548.58 120.45c-5.77 0-10.11-1.46-13.03-4.38s-4.38-7.34-4.38-13.26V76.64H519V66h12.15V46.74h13.37V66h13.14v10.63h-13.14v24.2c0 2.92.62 5.15 1.86 6.68 1.24 1.46 3.25 2.2 6.02 2.2 1.39 0 2.74-.11 4.05-.33v10.07c-.73.22-1.86.44-3.4.66-1.45.22-2.95.33-4.48.33ZM499.62 42.8h13.36v76.66h-13.36V42.8Zm0 0h6.68v10.62h-6.68V42.8Zm0 66.04h13.36v10.62h-13.36v-10.62ZM447.3 42.8h16.42l31.55 76.66h-16.1l-20.92-56.95c-.3-.95-.62-1.86-.99-2.74-.44-1.31-1.1-3.36-1.97-6.13-.3 1.02-.62 2-.99 2.96l-1.09 2.84-1.1 3.07-21.02 56.95h-15.34L447.3 42.8Zm-9.86 43.59h35.81v12.15h-35.81V86.4ZM388.3 121.43a29.32 29.32 0 0 1-14.23-3.4 24.83 24.83 0 0 1-9.75-9.85c-2.26-4.3-3.4-9.38-3.4-15.22 0-5.77 1.17-10.8 3.5-15.12a24.85 24.85 0 0 1 9.65-9.96 27.9 27.9 0 0 1 14.23-3.62c5.33 0 10.08 1.17 14.24 3.5a24.48 24.48 0 0 1 9.75 10.08c2.34 4.31 3.5 9.35 3.5 15.12 0 5.84-1.16 10.91-3.5 15.22a24.83 24.83 0 0 1-9.75 9.86 29.32 29.32 0 0 1-14.24 3.4Zm0-10.51c2.78 0 5.19-.7 7.23-2.08a14.19 14.19 0 0 0 4.93-6.25 24.16 24.16 0 0 0 1.75-9.63c0-5.7-1.27-10.12-3.83-13.25a12.25 12.25 0 0 0-10.08-4.82c-2.7 0-5.1.73-7.22 2.19a13.77 13.77 0 0 0-4.82 6.13c-1.17 2.7-1.75 5.95-1.75 9.75 0 5.62 1.24 10.04 3.72 13.25 2.48 3.14 5.84 4.7 10.07 4.7ZM327.9 66.01h13.36v4.06c0 1.97-.15 3.83-.44 5.58a22.51 22.51 0 0 1 6.24-8.21c2.56-2.12 5.7-3.18 9.42-3.18 1.02 0 1.97.11 2.85.33v12.92c-1.17-.29-2.45-.43-3.84-.43a16 16 0 0 0-7.44 1.64 11.2 11.2 0 0 0-5.04 5.04c-1.17 2.33-1.75 5.4-1.75 9.2v26.5h-13.37V66.01ZM287.31 121.43c-3.65 0-6.94-.8-9.86-2.4a17.9 17.9 0 0 1-6.79-7.34c-1.68-3.22-2.52-7.12-2.52-11.72V66h13.48V97.9c0 3.87.83 6.97 2.51 9.3 1.68 2.34 4.1 3.51 7.23 3.51 2.27 0 4.27-.51 6.03-1.53 1.75-1.1 3.1-2.63 4.05-4.6a14.53 14.53 0 0 0 1.53-6.8V66.02h13.36v53.45h-13.25v-2.19c0-1.31.11-2.63.33-3.94l.22-1.2a18.06 18.06 0 0 1-6.24 6.78c-2.56 1.68-5.92 2.52-10.08 2.52ZM205.35 42.8h53.34v12.15H219.7v18.73h37.35v12.27H219.7v21.36h40.63v12.15h-54.98V42.8Z"/></svg>