<svg id="Layer_1" data-name="Layer 1" xmlns="http://www.w3.org/2000/svg" viewBox="0 0 323 87"><defs><style>.cls-1{opacity:0.1;}</style></defs><g class="cls-1"><path d="M201.13,52.72a30.78,30.78,0,0,1,3-13.73,21.72,21.72,0,0,1,8.55-9.33,24.91,24.91,0,0,1,12.94-3.31q10.48,0,17.11,6.42t7.39,17.41l.1,3.55q0,11.91-6.66,19.11T225.68,80q-11.2,0-17.88-7.17t-6.67-19.53Zm13.83,1q0,7.38,2.77,11.29a10,10,0,0,0,15.79.05q2.83-3.87,2.83-12.34,0-7.25-2.83-11.22a9.18,9.18,0,0,0-7.94-4,9,9,0,0,0-7.85,4C215.88,44.09,215,48.18,215,53.7Z"/></g><path d="M35.37,64.78a4.47,4.47,0,0,0-2.52-4,28.42,28.42,0,0,0-8.06-2.6Q6.33,54.3,6.32,42.48A14.24,14.24,0,0,1,12,31q5.72-4.62,15-4.62,9.86,0,15.77,4.65a14.61,14.61,0,0,1,5.91,12H34.84a6.71,6.71,0,0,0-1.91-4.9q-1.92-1.93-6-1.94a8.26,8.26,0,0,0-5.4,1.58,5,5,0,0,0-1.92,4,4.27,4.27,0,0,0,2.18,3.71A22.51,22.51,0,0,0,29.15,48a60.73,60.73,0,0,1,8.7,2.32q11,4,11,13.93a13.49,13.49,0,0,1-6.08,11.46Q36.66,80,27,80a27.37,27.37,0,0,1-11.56-2.32,19.36,19.36,0,0,1-7.92-6.36,14.83,14.83,0,0,1-2.87-8.73H17.8a7.23,7.23,0,0,0,2.73,5.64,10.82,10.82,0,0,0,6.8,2,10,10,0,0,0,6-1.5A4.69,4.69,0,0,0,35.37,64.78Z"/><path d="M79.58,80q-11.39,0-18.54-7T53.89,54.44V53.1a31.28,31.28,0,0,1,3-14,22.21,22.21,0,0,1,8.54-9.47,24,24,0,0,1,12.61-3.33q10.62,0,16.73,6.7t6.1,19V57.7h-33a12.79,12.79,0,0,0,4,8.13,12.24,12.24,0,0,0,8.54,3.06q8,0,12.49-5.79l6.8,7.61a20.71,20.71,0,0,1-8.43,6.87A27.65,27.65,0,0,1,79.58,80ZM78,37.5a8.62,8.62,0,0,0-6.67,2.79,14.43,14.43,0,0,0-3.28,8H87.29V47.16A10.34,10.34,0,0,0,84.8,40,8.94,8.94,0,0,0,78,37.5Z"/><path d="M121.36,79.09H107.48V5.59h13.88Z"/><path d="M134.57,79.09V37.46h-7.71V27.31h7.71v-4.4q0-8.71,5-13.52t14-4.81a32.27,32.27,0,0,1,7,1l-.14,10.72a17.57,17.57,0,0,0-4.22-.43q-7.8,0-7.8,7.32v4.16h10.29V37.46H148.44V79.09Z"/><path d="M177.44,33a17.28,17.28,0,0,1,13.83-6.61q16.85,0,17.09,19.58V79.09H194.53V46.31q0-4.45-1.92-6.58t-6.36-2.13q-6.08,0-8.81,4.69v36.8H163.62V5.59h13.82Z"/><path d="M271.22,64.78a4.48,4.48,0,0,0-2.51-4,28.42,28.42,0,0,0-8.06-2.6q-18.48-3.88-18.47-15.7A14.22,14.22,0,0,1,247.9,31q5.72-4.62,15-4.62,9.86,0,15.77,4.65a14.64,14.64,0,0,1,5.91,12H270.7a6.68,6.68,0,0,0-1.92-4.9c-1.27-1.29-3.27-1.94-6-1.94a8.31,8.31,0,0,0-5.41,1.58,5,5,0,0,0-1.91,4,4.27,4.27,0,0,0,2.18,3.71A22.52,22.52,0,0,0,265,48a60.54,60.54,0,0,1,8.71,2.32q11,4,11,13.93a13.51,13.51,0,0,1-6.08,11.46Q272.52,80,262.9,80a27.37,27.37,0,0,1-11.56-2.32,19.24,19.24,0,0,1-7.92-6.36,14.83,14.83,0,0,1-2.87-8.73h13.11a7.23,7.23,0,0,0,2.73,5.64,10.79,10.79,0,0,0,6.79,2,10.07,10.07,0,0,0,6-1.5A4.71,4.71,0,0,0,271.22,64.78Z"/><path d="M308.17,14.58V27.31H317V37.46h-8.85V63.3a6.13,6.13,0,0,0,1.1,4.11c.73.83,2.13,1.25,4.21,1.25a22.24,22.24,0,0,0,4.06-.34V78.8A28.42,28.42,0,0,1,309.17,80q-14.55,0-14.83-14.69V37.46h-7.56V27.31h7.56V14.58Z"/><path d="M222.41,75.64a4.12,4.12,0,0,1,1.07-2.85,3.87,3.87,0,0,1,3-1.17,4,4,0,0,1,3,1.17,4.06,4.06,0,0,1,1.1,2.85,3.68,3.68,0,0,1-1.1,2.75,4.14,4.14,0,0,1-3,1.08,4,4,0,0,1-3-1.08A3.73,3.73,0,0,1,222.41,75.64Z"/></svg>
