<svg width="390" height="137" viewBox="0 0 390 137" fill="none" xmlns="http://www.w3.org/2000/svg">
<path d="M0 62.4926C0 50.3699 3.45098 39.0532 9.42414 29.4713L0.032324 64.5221C0.0108291 63.8482 0 63.1716 0 62.4926Z" fill="black"/>
<path d="M2.75132 80.89C2.1405 78.9036 1.626 76.8751 1.21327 74.8098L15.5772 21.203C16.9586 19.634 18.4175 18.1349 19.9479 16.7116L2.75132 80.89Z" fill="black"/>
<path d="M5.02684 87.0927C5.64883 88.5441 6.32418 89.9672 7.05042 91.3596L28.9118 9.77164C27.5802 10.622 26.283 11.5213 25.0227 12.4672L5.02684 87.0927Z" fill="black"/>
<path d="M12.0148 99.3465C11.222 98.2622 10.4634 97.1514 9.74035 96.0157L33.5731 7.07069C34.7634 6.44796 35.9763 5.86246 37.2102 5.31574L26.1331 46.6562C24.5917 50.1917 23.5506 53.9955 23.0994 57.9781L12.0148 99.3465Z" fill="black"/>
<path d="M23.666 70.5585L14.9558 103.066C15.7443 103.989 16.5593 104.889 17.3995 105.765L25.303 76.2682C24.6205 74.4256 24.0709 72.5185 23.666 70.5585Z" fill="black"/>
<path d="M32.8984 36.1027L41.618 3.56089C42.7584 3.15665 43.914 2.78457 45.0837 2.44574L37.1709 31.9765C35.646 33.244 34.2176 34.6236 32.8984 36.1027Z" fill="black"/>
<path d="M20.5232 108.802L27.7893 81.6842C28.4669 82.9073 29.2073 84.0909 30.0061 85.2306L23.0976 111.014C22.2193 110.299 21.3609 109.562 20.5232 108.802Z" fill="black"/>
<path d="M49.3063 1.38169L42.036 28.515C43.2283 27.7951 44.4616 27.1362 45.7315 26.5425L52.64 0.759536C51.5186 0.937377 50.4071 1.14504 49.3063 1.38169Z" fill="black"/>
<path d="M32.9497 88.9398L26.3687 113.5C27.2468 114.124 28.1417 114.725 29.0526 115.303L35.4361 91.4795C34.5701 90.6704 33.7404 89.8229 32.9497 88.9398Z" fill="black"/>
<path d="M50.1366 24.7977L56.7141 0.250017C57.7812 0.151947 58.8561 0.0807001 59.9381 0.0369555L53.559 23.844C52.3979 24.1118 51.2562 24.4305 50.1366 24.7977Z" fill="black"/>
<path d="M32.4516 117.313L38.6501 94.18C39.5138 94.8313 40.405 95.4481 41.3217 96.0284L35.2331 118.752C34.2925 118.295 33.3651 117.815 32.4516 117.313Z" fill="black"/>
<path d="M63.8855 0L57.6906 23.1199C58.7568 22.9909 59.8361 22.9041 60.9267 22.8613L67.0136 0.145038C65.9777 0.0712457 64.9348 0.0226957 63.8855 0Z" fill="black"/>
<path d="M44.741 97.9626L38.7486 120.326C39.6948 120.715 40.6526 121.082 41.6213 121.425L47.5649 99.2436C46.6043 98.8526 45.6623 98.425 44.741 97.9626Z" fill="black"/>
<path d="M64.8543 22.8987L70.8462 0.53648C71.8669 0.672553 72.8799 0.833259 73.8844 1.01798L67.9409 23.1995C66.9238 23.0602 65.8944 22.9594 64.8543 22.8987Z" fill="black"/>
<path d="M62.5074 102.155C61.141 102.155 59.7907 102.086 58.4599 101.951L52.4974 124.203C55.7567 124.727 59.1002 125 62.5074 125C97.0294 125 125.015 97.0145 125.015 62.4926C125.015 35.7845 108.264 12.9887 84.6956 4.03762L78.733 26.2904C92.548 32.4917 102.17 46.3685 102.17 62.4926C102.17 84.3974 84.4122 102.155 62.5074 102.155Z" fill="black"/>
<path d="M179.425 59.4775C162.652 59.4775 152.212 48.2561 152.212 30.3098V30.2316C152.212 12.2852 162.73 1.10295 179.425 1.10295C196.159 1.10295 206.638 12.3243 206.638 30.2316V30.3098C206.638 48.2561 196.198 59.4775 179.425 59.4775ZM179.425 49.4682C188.809 49.4682 194.595 42.0003 194.595 30.3098V30.2316C194.595 18.4628 188.691 11.1122 179.425 11.1122C170.198 11.1122 164.255 18.4237 164.255 30.2316V30.3098C164.255 42.1176 170.159 49.4682 179.425 49.4682ZM230.863 59.4775C217.452 59.4775 208.812 53.339 208.147 42.9387L208.108 42.3131H219.251L219.329 42.7432C220.072 47.1222 224.725 49.8592 231.176 49.8592C237.706 49.8592 241.811 47.0049 241.811 42.7041V42.665C241.811 38.8333 239.035 36.9175 232.036 35.4708L226.093 34.2978C214.95 32.0692 209.32 26.7518 209.32 18.2673V18.2282C209.32 7.90614 218.313 1.10295 230.824 1.10295C243.883 1.10295 251.899 7.63245 252.446 17.5244L252.485 18.2673H241.342L241.303 17.7981C240.716 13.38 236.65 10.6822 230.824 10.6822C224.764 10.7213 221.128 13.4973 221.128 17.5244V17.5635C221.128 21.1215 224.021 23.1938 230.511 24.484L236.494 25.6961C248.301 28.042 253.619 32.8512 253.619 41.7266V41.7657C253.619 52.5961 245.095 59.4775 230.863 59.4775ZM277.454 59.4775C264.043 59.4775 255.402 53.339 254.737 42.9387L254.698 42.3131H265.841L265.919 42.7432C266.662 47.1222 271.315 49.8592 277.766 49.8592C284.296 49.8592 288.401 47.0049 288.401 42.7041V42.665C288.401 38.8333 285.625 36.9175 278.626 35.4708L272.683 34.2978C261.54 32.0692 255.91 26.7518 255.91 18.2673V18.2282C255.91 7.90614 264.903 1.10295 277.414 1.10295C290.473 1.10295 298.489 7.63245 299.036 17.5244L299.075 18.2673H287.932L287.893 17.7981C287.306 13.38 283.24 10.6822 277.414 10.6822C271.354 10.7213 267.718 13.4973 267.718 17.5244V17.5635C267.718 21.1215 270.611 23.1938 277.102 24.484L283.084 25.6961C294.892 28.042 300.209 32.8512 300.209 41.7266V41.7657C300.209 52.5961 291.685 59.4775 277.454 59.4775ZM307.348 59.0474C304.846 59.0474 302.891 57.0924 302.891 54.5901C302.891 52.0878 304.846 50.1329 307.348 50.1329C309.851 50.1329 311.806 52.0878 311.806 54.5901C311.806 57.0924 309.851 59.0474 307.348 59.0474ZM178.408 123.438C162.652 123.438 152.564 111.982 152.564 93.997V93.9579C152.564 76.3243 162.652 65.142 178.408 65.142C191.389 65.142 199.17 72.6099 201.789 82.5801L201.985 83.323H194.595L194.439 82.8929C191.819 75.7378 186.345 71.6324 178.408 71.6324C166.796 71.6324 159.758 80.0387 159.758 93.9579V93.997C159.758 108.19 166.913 116.948 178.408 116.948C188.418 116.948 195.299 110.458 195.299 100.996V99.9791H179.386V93.8015H202.337V99.158C202.337 114.407 193.461 123.438 178.408 123.438ZM220.598 123.282C212.504 123.282 207.069 118.395 207.069 111.005V110.927C207.069 104.006 212.465 99.6663 221.81 99.1189L233.461 98.4542V95.0526C233.461 90.0871 230.216 87.0765 224.547 87.0765C219.307 87.0765 216.023 89.5788 215.241 93.215L215.163 93.5669H208.594L208.633 93.1368C209.22 86.4509 215.046 81.0553 224.625 81.0553C234.243 81.0553 240.264 86.2554 240.264 94.388V122.5H233.461V115.892H233.305C230.92 120.35 226.032 123.282 220.598 123.282ZM214.029 111.005C214.029 114.915 217.235 117.378 222.122 117.378C228.535 117.378 233.461 112.96 233.461 107.056V103.733L222.592 104.397C217.157 104.71 214.029 107.134 214.029 110.927V111.005ZM247.656 122.5V66.0804H254.459V122.5H247.656ZM262.397 122.5V66.0804H269.201V122.5H262.397ZM293.522 123.282C281.831 123.282 274.793 115.11 274.793 102.325V102.286C274.793 89.6961 281.987 81.0553 293.091 81.0553C304.196 81.0553 310.96 89.3051 310.96 101.504V104.006H281.675C281.831 112.373 286.445 117.261 293.678 117.261C298.839 117.261 302.475 114.68 303.648 111.2L303.765 110.849H310.451L310.373 111.24C309.044 117.965 302.397 123.282 293.522 123.282ZM293.052 87.0765C287.148 87.0765 282.535 91.1037 281.792 98.6888H304.039C303.374 90.7909 298.995 87.0765 293.052 87.0765ZM316.24 122.5V81.8372H323.043V88.7186H323.199C324.568 84.0268 328.086 81.0553 332.661 81.0553C333.834 81.0553 334.851 81.2508 335.398 81.329V87.9367C334.851 87.7412 333.404 87.5457 331.762 87.5457C326.483 87.5457 323.043 91.221 323.043 97.3986V122.5H316.24ZM344.431 136.185C343.102 136.185 341.655 136.028 340.795 135.872V130.32C341.382 130.437 342.164 130.554 342.985 130.554C347.286 130.554 349.671 129.46 351.313 124.846L352.134 122.539L337.042 81.8372H344.314L355.535 115.697H355.692L366.952 81.8372H374.107L358.233 125.041C355.34 132.822 351.782 136.185 344.431 136.185Z" fill="black"/>
</svg>
