<svg version="1.2" baseProfile="tiny-ps" xmlns="http://www.w3.org/2000/svg" viewBox="0 0 508 101" width="508" height="101">
  <title>horizontal-svg</title>
  <style>
    tspan { white-space:pre }
    .shp0 { fill: #3498db }
    .shp1 { fill: transparent }
    .shp2 { fill: #8a9595 }
  </style>
  <g id="Logo">
    <g id="Shield">
      <g id="Layer">
        <path id="Layer" class="shp0" d="M284.81 0C279.86 0.24 254.33 8.51 242.56 14.89C240.87 15.81 239.01 18.96 239 20.34C239 33 242.05 51.67 250.66 68.26L267.5 51.42C264.25 43.19 266.19 33.81 272.44 27.56C276.25 23.94 283.41 21.26 289.64 21.15C292.47 21.1 295.11 21.58 297.15 22.74C298.34 23.43 297.78 24.32 297.42 24.68L284.52 37.05C282.89 38.8 284.3 43.29 285.36 46.15C288.21 47.2 292.7 48.61 294.45 46.98L306.83 34.08C307.18 33.73 308.07 33.17 308.76 34.36C312.47 40.88 309.21 53.53 303.95 59.06C297.69 65.32 288.31 67.26 280.09 64L260.76 83.33C267.04 90.61 274.95 96.69 284.81 100.54C320.46 86.63 330.62 43.46 330.62 20.34C330.61 18.96 328.76 15.81 327.06 14.89C315.29 8.51 289.76 0.24 284.81 0L284.81 0Z" />
        <g id="Layer">
          <path id="Layer" class="shp1" d="M250.69 68.23C250.93 68.68 251.17 69.13 251.41 69.58C252.43 71.46 253.52 73.31 254.69 75.12C255.86 76.93 257.1 78.69 258.43 80.4C259.19 81.38 259.98 82.35 260.8 83.3L280.12 63.97C288.35 67.23 297.73 65.29 303.98 59.03C309.25 53.5 312.51 40.85 308.8 34.33C308.11 33.14 307.22 33.7 306.86 34.05L294.49 46.95C292.74 48.58 288.25 47.17 285.39 46.12C284.34 43.26 282.93 38.77 284.56 37.02L297.46 24.65C297.81 24.29 298.37 23.4 297.18 22.71C295.14 21.55 292.51 21.07 289.68 21.12C283.45 21.23 276.28 23.91 272.48 27.53C266.22 33.79 264.28 43.16 267.54 51.39L250.69 68.23Z" />
        </g>
      </g>
    </g>
    <g id="Tools">
      <path id="Layer" class="shp2" d="M343.3 31.55L343.3 24.61L387.83 24.61L387.83 31.55L369.48 31.55L369.48 76.83L361.65 76.83L361.65 31.55L343.3 31.55Z" />
      <path id="Layer" fill-rule="evenodd" class="shp2" d="M381.33 50.12C382.38 47.68 383.79 45.59 385.58 43.85C387.37 42.06 389.46 40.67 391.85 39.67C394.29 38.63 396.87 38.11 399.61 38.11C402.34 38.11 404.9 38.63 407.29 39.67C409.73 40.67 411.82 42.06 413.56 43.85C415.35 45.59 416.74 47.68 417.73 50.12C418.78 52.5 419.3 55.06 419.3 57.8C419.3 60.58 418.78 63.2 417.73 65.63C416.74 68.02 415.35 70.11 413.56 71.9C411.82 73.64 409.73 75.03 407.29 76.08C404.9 77.07 402.34 77.57 399.61 77.57C396.87 77.57 394.29 77.07 391.85 76.08C389.46 75.03 387.37 73.64 385.58 71.9C383.79 70.11 382.38 68.02 381.33 65.63C380.34 63.2 379.84 60.58 379.84 57.8C379.84 55.06 380.34 52.5 381.33 50.12ZM408.33 67.2C410.77 64.61 411.99 61.48 411.99 57.8C411.99 54.12 410.77 51.01 408.33 48.48C405.95 45.94 403.04 44.67 399.61 44.67C396.18 44.67 393.24 45.94 390.8 48.48C388.37 51.01 387.15 54.12 387.15 57.8C387.15 61.48 388.34 64.61 390.73 67.2C393.17 69.73 396.13 71 399.61 71C403.04 71 405.95 69.73 408.33 67.2Z" />
      <path id="Layer" fill-rule="evenodd" class="shp2" d="M423.45 50.12C424.5 47.68 425.91 45.59 427.7 43.85C429.49 42.06 431.58 40.67 433.97 39.67C436.41 38.63 438.99 38.11 441.73 38.11C444.46 38.11 447.02 38.63 449.41 39.67C451.85 40.67 453.94 42.06 455.68 43.85C457.47 45.59 458.86 47.68 459.85 50.12C460.9 52.5 461.42 55.06 461.42 57.8C461.42 60.58 460.9 63.2 459.85 65.63C458.86 68.02 457.47 70.11 455.68 71.9C453.94 73.64 451.85 75.03 449.41 76.08C447.02 77.07 444.46 77.57 441.73 77.57C438.99 77.57 436.41 77.07 433.97 76.08C431.58 75.03 429.49 73.64 427.7 71.9C425.91 70.11 424.5 68.02 423.45 65.63C422.46 63.2 421.96 60.58 421.96 57.8C421.96 55.06 422.46 52.5 423.45 50.12ZM450.45 67.2C452.89 64.61 454.11 61.48 454.11 57.8C454.11 54.12 452.89 51.01 450.45 48.48C448.07 45.94 445.16 44.67 441.73 44.67C438.3 44.67 435.36 45.94 432.92 48.48C430.49 51.01 429.27 54.12 429.27 57.8C429.27 61.48 430.46 64.61 432.85 67.2C435.29 69.73 438.25 71 441.73 71C445.16 71 448.07 69.73 450.45 67.2Z" />
      <path id="Layer" class="shp2" d="M473.1 22.97L473.1 76.83L465.64 76.83L465.64 24.61L473.1 22.97Z" />
      <path id="Layer" class="shp2" d="M475.48 71.9L479.51 66.98C481.5 68.52 483.51 69.71 485.55 70.56C487.64 71.35 489.75 71.75 491.89 71.75C494.58 71.75 496.76 71.23 498.45 70.18C500.15 69.14 500.99 67.77 500.99 66.08C500.99 64.74 500.49 63.67 499.5 62.87C498.5 62.08 496.96 61.53 494.87 61.23L488.01 60.26C484.28 59.72 481.45 58.57 479.51 56.83C477.62 55.04 476.67 52.68 476.67 49.75C476.67 46.31 478.04 43.55 480.78 41.47C483.51 39.33 487.09 38.26 491.52 38.26C494.3 38.26 496.94 38.66 499.42 39.45C501.96 40.25 504.42 41.47 506.81 43.11L503 48.03C500.92 46.64 498.88 45.64 496.89 45.05C494.95 44.4 492.98 44.08 490.99 44.08C488.71 44.08 486.87 44.55 485.48 45.49C484.08 46.44 483.39 47.68 483.39 49.22C483.39 50.62 483.86 51.69 484.8 52.43C485.8 53.13 487.41 53.65 489.65 54L496.51 54.97C500.24 55.51 503.08 56.68 505.02 58.47C507.01 60.26 508 62.63 508 65.56C508 67.25 507.58 68.84 506.73 70.33C505.94 71.78 504.82 73.02 503.38 74.06C501.99 75.11 500.32 75.95 498.38 76.6C496.44 77.2 494.35 77.49 492.11 77.49C488.83 77.49 485.75 77.02 482.86 76.08C480.03 75.13 477.57 73.74 475.48 71.9L475.48 71.9Z" />
    </g>
    <g id="Privacy">
      <path id="Layer" fill-rule="evenodd" class="shp2" d="M1.46 76.82L1.46 24.6L25.63 24.6C30.7 24.6 34.8 26.07 37.94 29.01C41.12 31.89 42.71 35.64 42.71 40.27C42.71 44.85 41.12 48.57 37.94 51.46C34.75 54.34 30.65 55.79 25.63 55.79L9.29 55.79L9.29 76.82L1.46 76.82ZM24.81 31.47L9.29 31.47L9.29 49.15L24.81 49.15C27.84 49.15 30.25 48.35 32.04 46.76C33.88 45.12 34.8 42.95 34.8 40.27C34.8 37.58 33.88 35.45 32.04 33.85C30.25 32.26 27.84 31.47 24.81 31.47L24.81 31.47Z" />
      <path id="Layer" class="shp2" d="M46.91 76.82L46.91 38.85L54.37 38.85L54.37 43.7C55.51 41.86 56.98 40.47 58.77 39.52C60.56 38.53 62.57 38.03 64.81 38.03C65.61 38.03 66.3 38.08 66.9 38.18C67.5 38.28 68.07 38.43 68.62 38.63L68.62 45.34C67.92 45.09 67.2 44.89 66.45 44.74C65.71 44.6 64.96 44.52 64.22 44.52C62.03 44.52 60.06 45.12 58.32 46.31C56.63 47.46 55.31 49.17 54.37 51.46L54.37 76.82L46.91 76.82Z" />
      <path id="Layer" class="shp2" d="M75.41 32.74C74.17 32.74 73.1 32.29 72.2 31.4C71.31 30.45 70.86 29.36 70.86 28.12C70.86 26.87 71.31 25.8 72.2 24.91C73.1 23.96 74.17 23.49 75.41 23.49C76.65 23.49 77.72 23.96 78.62 24.91C79.56 25.8 80.03 26.87 80.03 28.12C80.03 29.36 79.56 30.45 78.62 31.4C77.72 32.29 76.65 32.74 75.41 32.74L75.41 32.74ZM79.14 38.86L79.14 76.82L71.68 76.82L71.68 38.86L79.14 38.86Z" />
      <path id="Layer" class="shp2" d="M97.33 76.82L80.92 38.85L89.12 38.85L100.98 67.27L112.84 38.85L120.83 38.85L104.41 76.82L97.33 76.82Z" />
      <path id="Layer" fill-rule="evenodd" class="shp2" d="M134.56 77.5C130.43 77.5 127.08 76.43 124.49 74.29C121.9 72.15 120.61 69.37 120.61 65.94C120.61 62.36 121.98 59.55 124.71 57.51C127.45 55.42 131.2 54.38 135.98 54.38C137.82 54.38 139.61 54.57 141.35 54.97C143.09 55.32 144.75 55.82 146.35 56.46L146.35 52.44C146.35 49.75 145.55 47.74 143.96 46.39C142.37 45.05 140.08 44.38 137.1 44.38C135.36 44.38 133.54 44.65 131.65 45.2C129.76 45.7 127.65 46.49 125.31 47.59L122.55 41.99C125.39 40.65 128.07 39.68 130.61 39.08C133.14 38.44 135.65 38.11 138.14 38.11C143.06 38.11 146.87 39.31 149.55 41.7C152.29 44.03 153.66 47.36 153.66 51.69L153.66 76.83L146.35 76.83L146.35 73.55C144.66 74.89 142.84 75.88 140.9 76.53C138.96 77.18 136.85 77.5 134.56 77.5L134.56 77.5ZM127.77 65.79C127.77 67.63 128.54 69.12 130.08 70.26C131.68 71.41 133.74 71.98 136.28 71.98C138.26 71.98 140.1 71.68 141.8 71.09C143.49 70.49 145 69.59 146.35 68.4L146.35 61.84C144.9 61.04 143.39 60.47 141.8 60.12C140.2 59.72 138.46 59.52 136.57 59.52C133.89 59.52 131.75 60.09 130.16 61.24C128.57 62.38 127.77 63.9 127.77 65.79L127.77 65.79Z" />
      <path id="Layer" class="shp2" d="M177.4 70.93C179.29 70.93 181.08 70.56 182.77 69.81C184.46 69.02 186.08 67.85 187.62 66.31L192.09 71.15C190.11 73.14 187.82 74.71 185.23 75.85C182.65 76.95 179.94 77.49 177.1 77.49C174.37 77.49 171.81 77 169.42 76C167.03 74.96 164.97 73.57 163.23 71.83C161.49 70.08 160.09 68.02 159.05 65.63C158.06 63.2 157.56 60.59 157.56 57.8C157.56 55.07 158.06 52.51 159.05 50.12C160.09 47.68 161.49 45.59 163.23 43.85C164.97 42.06 167.03 40.67 169.42 39.68C171.81 38.63 174.37 38.11 177.1 38.11C179.94 38.11 182.7 38.68 185.38 39.82C188.07 40.92 190.4 42.46 192.39 44.45L187.69 49.52C186.25 47.98 184.64 46.81 182.85 46.02C181.06 45.17 179.19 44.75 177.25 44.75C173.82 44.75 170.91 46.02 168.52 48.55C166.14 51.09 164.94 54.17 164.94 57.8C164.94 61.53 166.14 64.66 168.52 67.2C170.96 69.69 173.92 70.93 177.4 70.93L177.4 70.93Z" />
      <path id="Layer" class="shp2" d="M204.75 80.4L206.24 76.97L191.1 38.85L199.31 38.85L210.42 67.87L222.65 38.85L230.71 38.85L212.36 81.37C210.62 85.4 208.63 88.28 206.39 90.02C204.15 91.81 201.29 92.71 197.81 92.71C197.02 92.71 196.27 92.66 195.57 92.56C194.93 92.51 194.36 92.41 193.86 92.26L193.86 85.7C194.36 85.8 194.85 85.87 195.35 85.92C195.9 85.97 196.52 85.99 197.22 85.99C198.91 85.99 200.37 85.52 201.62 84.58C202.91 83.68 203.95 82.29 204.75 80.4L204.75 80.4Z" />
    </g>
  </g>
</svg>
