<?xml version="1.0" encoding="UTF-8"?>
<svg version="1.1" xmlns="http://www.w3.org/2000/svg" width="712" height="140">
<path d="M0 0 C234.96 0 469.92 0 712 0 C712 46.2 712 92.4 712 140 C477.04 140 242.08 140 0 140 C0 93.8 0 47.6 0 0 Z " fill="#FDFDFD" transform="translate(0,0)"/>
<path d="M0 0 C62.37 0 124.74 0 189 0 C189 36.3 189 72.6 189 110 C126.63 110 64.26 110 0 110 C0 73.7 0 37.4 0 0 Z " fill="#020202" transform="translate(496,13)"/>
<path d="M0 0 C7.0360026 3.9594942 12.71482295 9.30957739 15.1875 17.17578125 C17.15220854 27.61329536 15.52873007 36.44248782 9.8125 45.3125 C2.44627855 52.67872145 -4.89848181 54.98397309 -15.25537109 55.00415039 C-23.5827863 54.75855185 -29.17029961 51.09667195 -34.8125 45.125 C-40.84114532 37.25189663 -41.20619319 29.23520786 -40.375 19.5 C-38.99089953 12.81554581 -35.50680805 6.72483644 -29.93359375 2.765625 C-20.21536602 -3.1756496 -10.72429328 -4.99024492 0 0 Z " fill="#050505" transform="translate(278.375,42.5)"/>
<path d="M0 0 C26.99204244 0 26.99204244 0 33.84375 5.47265625 C39.68732045 11.53106385 42.20511929 19.151352 42.5 27.4375 C42.16370495 36.64764507 39.75946231 44.08768783 33.07421875 50.5625 C22.1877423 58.10717671 14.84835966 55 0 55 C0 36.85 0 18.7 0 0 Z " fill="#080808" transform="translate(435,41)"/>
<path d="M0 0 C3.63 0 7.26 0 11 0 C11 7.59 11 15.18 11 23 C18.26 23 25.52 23 33 23 C33 15.41 33 7.82 33 0 C36.3 0 39.6 0 43 0 C43 18.15 43 36.3 43 55 C39.7 55 36.4 55 33 55 C33 47.41 33 39.82 33 32 C25.74 32 18.48 32 11 32 C11 39.59 11 47.18 11 55 C7.37 55 3.74 55 0 55 C0 36.85 0 18.7 0 0 Z " fill="#050505" transform="translate(186,41)"/>
<path d="M0 0 C11.55 0 23.1 0 35 0 C35 2.97 35 5.94 35 9 C27.08 9 19.16 9 11 9 C11 13.62 11 18.24 11 23 C18.92 23 26.84 23 35 23 C35 25.97 35 28.94 35 32 C27.08 32 19.16 32 11 32 C11 36.62 11 41.24 11 46 C18.92 46 26.84 46 35 46 C35 48.97 35 51.94 35 55 C23.45 55 11.9 55 0 55 C0 36.85 0 18.7 0 0 Z " fill="#070707" transform="translate(390,41)"/>
<path d="M0 0 C11.22 0 22.44 0 34 0 C34 2.97 34 5.94 34 9 C26.08 9 18.16 9 10 9 C10 13.62 10 18.24 10 23 C17.92 23 25.84 23 34 23 C34 25.97 34 28.94 34 32 C26.08 32 18.16 32 10 32 C10 36.62 10 41.24 10 46 C17.92 46 25.84 46 34 46 C34 48.97 34 51.94 34 55 C22.78 55 11.56 55 0 55 C0 36.85 0 18.7 0 0 Z " fill="#010101" transform="translate(62,41)"/>
<path d="M0 0 C0.495 0.99 0.495 0.99 1 2 C0.22265625 3.7265625 0.22265625 3.7265625 -0.9375 5.625 C-1.618125 6.73875 -2.29875 7.8525 -3 9 C-5.76276177 8.47731534 -8.3260876 7.89130413 -11 7 C-12.51861755 6.90796257 -14.04110426 6.86998716 -15.5625 6.875 C-16.74005859 6.87113281 -16.74005859 6.87113281 -17.94140625 6.8671875 C-20.06438977 6.87023634 -20.06438977 6.87023634 -22 8 C-22.67012422 10.7859186 -22.67012422 10.7859186 -22 14 C-18.98291327 16.81924497 -15.17005865 18.45983489 -11.453125 20.17578125 C-5.75162835 22.82784105 -1.10228348 25.3295258 2 31 C3.54413 35.63238999 3.47762019 39.7018956 1.6875 44.25 C-1.27816679 49.25957228 -5.49562661 51.46668931 -11 53 C-19.3329845 54.01141487 -28.88288306 54.12432419 -36 49 C-36.87890625 47.0625 -36.87890625 47.0625 -37 45 C-35.0625 41.75 -35.0625 41.75 -33 39 C-27 41 -27 41 -24.0625 42.125 C-19.30733477 43.48361864 -14.7268139 43.51258045 -10 42 C-9.9071875 40.1128125 -9.9071875 40.1128125 -9.8125 38.1875 C-9.77769531 37.47980469 -9.74289062 36.77210937 -9.70703125 36.04296875 C-10.10407443 33.2742543 -10.76571507 32.69698194 -13 31 C-16.09318534 29.30052576 -19.21191942 27.69972537 -22.375 26.13671875 C-27.53572113 23.49467626 -32.08034343 20.7589697 -34 15 C-34.59997399 11.08118254 -34.80339175 7.5474926 -32.94140625 3.9609375 C-24.44939792 -6.85544168 -11.31704597 -5.53726892 0 0 Z " fill="#060606" transform="translate(337,44)"/>
<path d="M0 0 C0.495 0.99 0.495 0.99 1 2 C0.22265625 3.7265625 0.22265625 3.7265625 -0.9375 5.625 C-1.618125 6.73875 -2.29875 7.8525 -3 9 C-5.76276177 8.47731534 -8.3260876 7.89130413 -11 7 C-12.684571 6.88259878 -14.37388877 6.82493455 -16.0625 6.8125 C-16.94035156 6.79832031 -17.81820312 6.78414062 -18.72265625 6.76953125 C-21.19925055 6.77770564 -21.19925055 6.77770564 -23 9 C-22.91382751 12.27455477 -22.31286238 13.66695295 -20.0625 16.0625 C-17.36867549 17.76675632 -15.08647567 18.77965968 -12.125 19.875 C-6.63258687 21.95719841 -1.98768269 24.8024235 1.16796875 29.87890625 C3.04596857 34.66648326 2.75258663 40.17794815 0.8125 44.875 C-3.39270814 49.80524402 -7.72672625 52.69560135 -14.234375 53.30078125 C-23.29964529 53.33099882 -29.98178397 52.09819931 -38 48 C-36.7508258 44.54074837 -35.32472205 41.85306797 -33 39 C-31.948125 39.433125 -31.948125 39.433125 -30.875 39.875 C-29.92625 40.24625 -28.9775 40.6175 -28 41 C-27.071875 41.37125 -26.14375 41.7425 -25.1875 42.125 C-20.45617734 43.42379446 -16.11554892 43.95199701 -11.5 41.875 C-9.76386853 40.00380748 -9.76386853 40.00380748 -9.4375 37.0625 C-10.18584211 32.98819296 -11.65887846 32.34843618 -15 30 C-16.97416268 28.94991347 -18.97582866 27.95012124 -21 27 C-25.77511212 24.75862084 -30.26596396 22.56952614 -33.2890625 18.08984375 C-34.74050101 13.82325253 -34.5143799 9.43158064 -34 5 C-31.84868381 0.78700579 -28.55816206 -1.35034777 -24.328125 -3.26953125 C-16.01845594 -5.87675963 -7.60253388 -3.84334738 0 0 Z " fill="#060606" transform="translate(51,44)"/>
<path d="M0 0 C4.50184702 3.88795879 8.37644098 7.58429454 8.98828125 13.79296875 C9.16096127 20.23666003 8.61837996 25.08405451 4.75 30.375 C-0.36507852 35.24056249 -4.6962712 35.72830453 -11.5234375 35.65625 C-16.62874325 35.1296282 -19.24976047 32.48337353 -22.5625 28.8125 C-26.37242827 23.30927028 -25.93460764 16.81791859 -25.25 10.375 C-23.47278882 5.77557746 -20.63836553 1.78152303 -16.25 -0.625 C-10.63647336 -2.28650894 -5.29434262 -2.64717131 0 0 Z " fill="#FBFBFB" transform="translate(274.25,51.625)"/>
<path d="M0 0 C10.23 0 20.46 0 31 0 C31 2.97 31 5.94 31 9 C24.07 9 17.14 9 10 9 C10 13.62 10 18.24 10 23 C16.27 23 22.54 23 29 23 C29 25.97 29 28.94 29 32 C22.73 32 16.46 32 10 32 C10 39.59 10 47.18 10 55 C6.7 55 3.4 55 0 55 C0 36.85 0 18.7 0 0 Z " fill="#000000" transform="translate(147,41)"/>
<path d="M0 0 C12.54 0 25.08 0 38 0 C38 2.97 38 5.94 38 9 C33.38 9 28.76 9 24 9 C24 24.18 24 39.36 24 55 C20.7 55 17.4 55 14 55 C14 39.82 14 24.64 14 9 C9.38 9 4.76 9 0 9 C0 6.03 0 3.06 0 0 Z " fill="#000000" transform="translate(345,41)"/>
<path d="M0 0 C3.3 0 6.6 0 10 0 C10 15.18 10 30.36 10 46 C16.93 46 23.86 46 31 46 C31 48.97 31 51.94 31 55 C20.77 55 10.54 55 0 55 C0 36.85 0 18.7 0 0 Z " fill="#000000" transform="translate(107,41)"/>
<path d="M0 0 C2.825625 -0.0825 5.65125 -0.165 8.5625 -0.25 C9.43849854 -0.28641602 10.31449707 -0.32283203 11.21704102 -0.36035156 C16.99299859 -0.44123454 20.28493092 0.62602522 25 4 C27.97564201 8.46346302 27.61292699 12.76713581 27 18 C25.17085816 21.44722885 23.96309628 22.58662283 20.40625 24.11328125 C16.21287923 25.20490415 12.42988973 25.2191096 8.125 25.125 C5.44375 25.08375 2.7625 25.0425 0 25 C0 16.75 0 8.5 0 0 Z " fill="#080808" transform="translate(628,69)"/>
<path d="M0 0 C11.68421053 0 11.68421053 0 16 4 C18.81745371 8.61282398 19.40776821 12.12601342 19.375 17.5 C19.38273437 18.7684375 19.39046875 20.036875 19.3984375 21.34375 C18.9030606 25.88956157 17.41622816 29.11169579 14.6875 32.75 C10.00082627 36.22161017 5.7857026 36 0 36 C0 24.12 0 12.24 0 0 Z " fill="#FCFCFC" transform="translate(446,51)"/>
<path d="M0 0 C2.51625 -0.061875 5.0325 -0.12375 7.625 -0.1875 C8.79603271 -0.22846802 8.79603271 -0.22846802 9.99072266 -0.27026367 C14.73414065 -0.32625985 17.86872694 0.43811445 22 3 C24.55573817 5.55573817 24.35498461 6.69698427 24.4375 10.25 C24.38116908 14.15219612 24.13945118 16.58392335 21.625 19.625 C17.31094157 23.52819572 13.94456727 23.12082818 8.375 23.0625 C5.61125 23.041875 2.8475 23.02125 0 23 C0 15.41 0 7.82 0 0 Z " fill="#050505" transform="translate(628,44)"/>
<path d="M0 0 C21.36363636 0 21.36363636 0 27.5 5.0625 C29.71237485 9.39506742 29.75760503 13.2315448 29 18 C27.6134995 21.53751997 25.69759825 24.30240175 23 27 C23.928125 27.5775 24.85625 28.155 25.8125 28.75 C28.70877295 30.79442796 30.19020472 32.04239946 32 35 C32.97973769 40.8207945 32.36715712 46.06951993 29 51 C20.75525526 58.47179992 11.89931252 55 0 55 C0 36.85 0 18.7 0 0 Z M2 3 C2 10.59 2 18.18 2 26 C6.021875 26.1546875 6.021875 26.1546875 10.125 26.3125 C10.95789551 26.35802002 11.79079102 26.40354004 12.64892578 26.45043945 C16.7304288 26.52591463 19.26619283 26.23080751 22.4921875 23.60546875 C26.53318047 19.40711624 26.39256087 16.30830075 26.35546875 10.640625 C26.21575997 7.75537271 26.21575997 7.75537271 23.6875 5.375 C18.97159613 2.96221197 14.98832725 2.87918227 9.8125 2.9375 C7.234375 2.958125 4.65625 2.97875 2 3 Z M2 28 C2 36.25 2 44.5 2 53 C5.9909375 53.0928125 5.9909375 53.0928125 10.0625 53.1875 C10.8862915 53.21481201 11.71008301 53.24212402 12.55883789 53.27026367 C18.56704447 53.33717341 23.41572117 52.50484403 27.90625 48.15234375 C30.02729384 43.97843248 29.72706859 39.53744659 29 35 C26.4522306 31.53220277 23.91521223 29.66246215 20 28 C17.8784414 27.72821919 17.8784414 27.72821919 15.671875 27.8046875 C14.9509668 27.80968262 14.23005859 27.81467773 13.48730469 27.81982422 C12.13233887 27.84713623 12.13233887 27.84713623 10.75 27.875 C6.41875 27.936875 6.41875 27.936875 2 28 Z " fill="#FEFEFE" transform="translate(626,41)"/>
<path d="M0 0 C0.66 0 1.32 0 2 0 C2 8.58 2 17.16 2 26 C12.89 26 23.78 26 35 26 C35 17.42 35 8.84 35 0 C35.99 0 36.98 0 38 0 C38 18.15 38 36.3 38 55 C37.01 55 36.02 55 35 55 C35 46.42 35 37.84 35 29 C24.11 29 13.22 29 2 29 C2 37.58 2 46.16 2 55 C1.34 55 0.68 55 0 55 C0 36.85 0 18.7 0 0 Z " fill="#E8E8E8" transform="translate(524,41)"/>
<path d="M0 0 C0.66 0 1.32 0 2 0 C2.0093457 1.13953125 2.01869141 2.2790625 2.02832031 3.453125 C2.06841055 7.71018528 2.13422095 11.96653727 2.20751953 16.22314453 C2.23561931 18.05996553 2.25688818 19.89690497 2.27099609 21.73388672 C2.29257897 24.38570314 2.33930499 27.03611185 2.390625 29.6875 C2.39185364 30.49928711 2.39308228 31.31107422 2.39434814 32.14746094 C2.56864597 39.0438863 4.43525826 44.50102087 9.4375 49.375 C14.50020471 52.58549567 17.86331468 53.38050042 23.78515625 52.54296875 C28.00825327 51.50767689 30.88226572 49.23749153 33.75 46.0625 C36.99739565 40.70429718 37.32857877 36.10261639 37.4140625 29.98046875 C37.43342865 29.12189774 37.4527948 28.26332672 37.4727478 27.3787384 C37.53231556 24.64842526 37.57883734 21.91806943 37.625 19.1875 C37.66320079 17.33136227 37.70225375 15.47524188 37.7421875 13.61914062 C37.83799827 9.07956856 37.92211321 4.53991354 38 0 C38.66 0 39.32 0 40 0 C40.12417084 5.83488314 40.21460824 11.66898684 40.2746582 17.50488281 C40.29970683 19.48744109 40.33375584 21.46990789 40.37719727 23.45214844 C40.43827619 26.31207926 40.46630629 29.17078292 40.48828125 32.03125 C40.51408768 32.90865845 40.5398941 33.78606689 40.56648254 34.69006348 C40.56988824 42.26759443 37.78126814 46.69724409 33 52.375 C27.38270538 56.93905188 20.89002842 56.58119968 14 56 C7.98949419 54.10780373 4.03721462 49.52152177 0.93313599 44.15582275 C-0.0858576 41.8016433 -0.24242117 40.24191415 -0.22705078 37.69042969 C-0.22689972 36.84986023 -0.22674866 36.00929077 -0.22659302 35.14324951 C-0.21627045 34.24519592 -0.20594788 33.34714233 -0.1953125 32.421875 C-0.1924826 31.4953009 -0.18965271 30.56872681 -0.18673706 29.61407471 C-0.17555611 26.65925091 -0.15045527 23.70473195 -0.125 20.75 C-0.11496751 18.74479605 -0.10584213 16.73958734 -0.09765625 14.734375 C-0.07562358 9.82279949 -0.04110795 4.91145141 0 0 Z " fill="#F4F4F4" transform="translate(574,41)"/>
<path d="M0 0 C2.85026332 0.30538536 4.05165508 1.04448076 6.25 2.9375 C8.75015376 7.31276908 8.65572845 11.07018609 8 16 C6.47789256 20.18579545 4.92074009 22.80899819 1 25 C-1.75 25.6875 -1.75 25.6875 -4 26 C-4.33 25.01 -4.66 24.02 -5 23 C-3.88625 22.566875 -2.7725 22.13375 -1.625 21.6875 C2.17512334 20.30088881 2.17512334 20.30088881 4 17 C4.48575395 13.30036237 4.47785752 9.70061756 4 6 C2.18735352 3.43009002 2.18735352 3.43009002 0 2 C0 1.34 0 0.68 0 0 Z " fill="#D5D5D5" transform="translate(650,70)"/>
<path d="M0 0 C5.80408183 0.40028151 9.43011922 1.08295933 14 5 C15.375 7.75 15.375 7.75 16 10 C15.34 10 14.68 10 14 10 C14 12.31 14 14.62 14 17 C13.67 17 13.34 17 13 17 C12.97421875 16.38511719 12.9484375 15.77023438 12.921875 15.13671875 C12.71204382 10.09844278 12.71204382 10.09844278 10.125 6 C5.73091275 3.93219424 1.58291946 3.69164462 -3.1875 3.4375 C-3.93708984 3.39431641 -4.68667969 3.35113281 -5.45898438 3.30664062 C-7.30578375 3.20077315 -9.15286834 3.0999024 -11 3 C-11 2.67 -11 2.34 -11 2 C-5.555 1.505 -5.555 1.505 0 1 C0 0.67 0 0.34 0 0 Z " fill="#D3D3D3" transform="translate(639,41)"/>
<path d="M0 0 C0.66 0 1.32 0 2 0 C2.45078755 6.42372261 1.78959979 9.73666695 -2 15 C-4.25 16.4375 -4.25 16.4375 -6 17 C-5.55055737 14.0786229 -4.75289114 12.65250316 -3 10.1875 C-0.79195245 6.66842422 -0.32805772 4.1007215 0 0 Z " fill="#EAEAEA" transform="translate(653,51)"/>
<path d="M0 0 C3.17538332 0.34021964 4.02276865 1.02466604 6.25 3.4375 C8 6 8 6 8 8 C7.34 8 6.68 8 6 8 C6 10.31 6 12.62 6 15 C5.67 15 5.34 15 5 15 C4.97421875 14.39671875 4.9484375 13.7934375 4.921875 13.171875 C4.62611413 7.93018499 4.62611413 7.93018499 1.9375 3.5625 C1.298125 3.046875 0.65875 2.53125 0 2 C0 1.34 0 0.68 0 0 Z " fill="#D2D2D2" transform="translate(650,70)"/>
<path d="M0 0 C0.66 0 1.32 0 2 0 C2.25 7.625 2.25 7.625 0 11 C-1.37432457 7.18243176 -0.67975039 3.92744671 0 0 Z " fill="#F6F6F6" transform="translate(656,78)"/>
</svg>
