<?xml version="1.0" encoding="UTF-8"?>
<svg xmlns="http://www.w3.org/2000/svg" width="93" height="46" viewBox="0 0 93 46" fill="none">
  <path fill-rule="evenodd" clip-rule="evenodd" d="M7.07105 44.3975C7.22517 44.2572 7.36938 44.1052 7.50216 43.9424C9.34732 41.7938 12.2358 40.4302 16.9242 40.4302C21.3462 40.4302 25.1394 41.6634 28.4565 44.1004L28.5874 44.1982C30.3898 45.5447 32.8435 45.6003 34.7046 44.3366C38.6683 41.6452 42.5089 40.4302 46.2913 40.4302C50.0067 40.4302 53.6119 41.6012 57.1857 44.1474L57.2602 44.2009C59.244 45.6251 61.9413 45.5017 63.7876 43.9022C66.1481 41.8574 69.3784 40.6641 73.8728 40.6641C78.6007 40.6641 82.2664 41.9877 85.1615 44.4399C85.3032 44.565 85.4529 44.6804 85.6095 44.7852C85.9828 45.0361 86.3851 45.2201 86.8008 45.3385C87.4685 45.5297 88.1917 45.5581 88.9131 45.3897C89.2573 45.3098 89.5927 45.1865 89.9105 45.0205C91.0425 44.43 91.8346 43.3592 92.0936 42.1362C92.1977 41.6446 92.2158 41.1284 92.1351 40.6089C92.11 40.4458 92.0755 40.2839 92.0316 40.1243C88.6778 27.0856 83.1951 16.8769 75.274 9.9822C67.2682 3.01361 57.1764 -0.216542 45.3636 0.0112437C33.598 0.238118 23.6515 3.69135 15.8908 10.6589C8.19769 17.5658 3.04596 27.5723 0.128351 40.22C0.0858891 40.3896 0.0541059 40.5612 0.0329156 40.7336C-0.119581 41.9524 0.265853 43.1381 1.02211 44.0226C1.42799 44.4973 1.94069 44.8852 2.53436 45.1449C2.88562 45.2992 3.25231 45.4027 3.62389 45.4562C4.90782 45.6438 6.16179 45.225 7.07105 44.3975ZM45.526 8.49453C55.6217 8.29985 63.5696 11.0258 69.7345 16.392C74.2132 20.2904 77.9585 25.7637 80.855 32.9925C78.6479 32.4468 76.3152 32.1792 73.8728 32.1792C68.7063 32.1792 64.0697 33.3787 60.2067 35.9888C55.8788 33.3384 51.2229 31.9453 46.2913 31.9453C41.2475 31.9453 36.4057 33.4016 31.8104 36.1353C27.375 33.3351 22.3772 31.9453 16.9242 31.9453C14.9552 31.9453 13.0711 32.1287 11.2937 32.5121C13.8983 25.8638 17.3441 20.7387 21.5277 16.9826C27.5059 11.6155 35.3831 8.69011 45.526 8.49453Z" fill="#FFFFFF" />
</svg>
