<?xml version="1.0" encoding="UTF-8"?>
<svg xmlns="http://www.w3.org/2000/svg" viewBox="0 0 222.4 139.8">
  <path fill="#ffffff" d="M146.70000000000002 130.2H135l-3 9h-6.5l13.4-38.5h8l13.4 38.5h-7.1l-10.6-31.6-5.8 16.9h8.2l1.7 5.7zM29.7 100.8v25.4c0 8.9-5.8 13.6-14.9 13.6-9 0-14.8-4.7-14.8-13.6v-25.4h6.5v25.4c0 5.2 3.2 7.9 8.2 7.9 5.2 0 8.4-2.7 8.4-7.9v-25.4h6.6zM50.9 112.7v26.5h-6.5v-38.5h6.1l17 26.5v-26.5H74v38.5h-6.1l-17-26.5zM171.3 100.8h6.5v38.5h-6.5v-38.5zM222.4 125.4c0 9-5.9 13.8-15.2 13.8h-14.5v-38.5h14.6c9.2 0 15.1 4.8 15.1 13.8v10.9zm-6.6-10.8c0-5.3-3.3-8.1-8.5-8.1h-8.1v27.1h8c5.3 0 8.6-2.8 8.6-8.1v-10.9zM108.3 124.7c4.3-1.6 6.9-5.3 6.9-11.5 0-8.7-5.1-12.4-12.8-12.4H88.8v38.5h6.5v-32.8h6.9c3.8 0 6.2 1.8 6.2 6.7s-2.4 6.8-6.2 6.8h-3.4l9.2 19.4h7.5l-7.2-14.7z" class="st0"></path>
  <linearGradient id="SVGID_1_" x1="68.07" x2="154.073" y1="81.489" y2="-4.514" gradientUnits="userSpaceOnUse">
    <stop offset="0" stop-color="#e32929"></stop>
    <stop offset="1" stop-color="#ff8d30"></stop>
  </linearGradient>
  <path fill="url(#SVGID_1_)" d="M107.8 19.2h6.5v38.5h-6.5V19.2zM50.9 57.7h-6.5V19.2h6.5v38.5zm25.2 4.6h6.5V77h-6.5V62.3zM60.2 45.8h6.5v23.8h-6.5V45.8zm31.7 0h6.5v23.8h-6.5V45.8zm79.4-26.6h6.5v38.5h-6.5V19.2zm-25.2-4.5h-6.5V0h6.5v14.7zM162 31.1h-6.5V7.4h6.5v23.7zm-31.8 0h-6.5V7.4h6.5v23.7z"></path>
</svg>
