<?xml version="1.0" encoding="utf-8"?>
<svg width="224" height="38" viewBox="0 0 224 38" fill="none" xmlns="http://www.w3.org/2000/svg"><g clip-path="url(#clip0_38_7799)"><path d="M223.531 0.964966H161.565V37.0351H223.531V0.964966Z" fill="black" stroke="black" stroke-miterlimit="10"></path><path d="M182.045 19.6505H171.035V28.4376H170.177V10.0275H171.035V18.7583H182.045V10.0275H182.889V28.4376H182.045V19.6505Z" fill="white"></path><path d="M199.536 10.0275H200.422V21.5619C200.461 22.9171 200.141 24.2588 199.494 25.4529C198.92 26.4862 198.068 27.341 197.033 27.9218C196.007 28.49 194.848 28.7832 193.673 28.7726C192.493 28.782 191.33 28.4889 190.298 27.9218C189.257 27.3443 188.4 26.489 187.823 25.4529C187.176 24.2588 186.856 22.9171 186.895 21.5619V10.0275H187.768V21.5201C187.74 22.6832 188.016 23.8336 188.569 24.8599C189.07 25.7786 189.811 26.5469 190.713 27.0846C191.607 27.6148 192.631 27.89 193.673 27.8801C194.71 27.891 195.73 27.6156 196.619 27.0846C197.514 26.5443 198.247 25.7761 198.741 24.8599C199.29 23.8323 199.563 22.6824 199.536 21.5201L199.536 10.0275Z" fill="white"></path><path d="M204.217 10.0275H208.366C209.305 10.0225 210.239 10.1492 211.142 10.4039C211.972 10.6254 212.716 11.0865 213.28 11.7287C213.873 12.498 214.165 13.4542 214.102 14.4206C214.112 15.1921 213.944 15.9557 213.61 16.6525C213.327 17.2596 212.931 17.8084 212.443 18.2702C212.119 18.6155 211.689 18.8458 211.22 18.9258C211.584 18.959 211.938 19.0558 212.267 19.2119C212.734 19.4175 213.167 19.6898 213.554 20.02C214.001 20.398 214.371 20.8572 214.644 21.373C214.952 21.9704 215.104 22.6347 215.087 23.3053C215.102 24.2162 214.913 25.119 214.531 25.9477C214.16 26.7248 213.549 27.3646 212.787 27.7747C211.823 28.2557 210.751 28.4839 209.673 28.4376H204.217L204.217 10.0275ZM205.075 18.6189H209.377C210.156 18.6531 210.923 18.4272 211.557 17.9774C212.107 17.5654 212.539 17.017 212.808 16.3874C213.07 15.8029 213.209 15.1717 213.217 14.5323C213.271 14.0002 213.19 13.463 212.98 12.9705C212.769 12.4781 212.437 12.0462 212.014 11.7151C211.057 11.124 209.941 10.8368 208.815 10.8919H205.075L205.075 18.6189ZM205.075 27.5732H210.067C210.976 27.6314 211.881 27.4121 212.661 26.9448C213.231 26.5598 213.66 26.0019 213.884 25.3548C214.101 24.7311 214.213 24.076 214.214 23.4161C214.225 22.8992 214.131 22.3854 213.938 21.9052C213.745 21.425 213.456 20.988 213.09 20.6202C212.648 20.2142 212.127 19.9026 211.558 19.7047C210.99 19.5068 210.387 19.4268 209.786 19.4697H205.075V27.5732Z" fill="white"></path><path d="M7.19911 9.69194C8.18444 9.67506 9.16705 9.79953 10.1165 10.0615C10.8045 10.251 11.4693 10.5153 12.0988 10.8497C12.4066 11.014 12.7048 11.1956 12.9917 11.3937L11.2763 14.2249C11.0314 14.0402 10.7755 13.8703 10.5101 13.716C10.0991 13.475 9.66318 13.2786 9.20978 13.1303C8.67953 12.9543 8.12347 12.867 7.56436 12.872C6.85042 12.8377 6.14128 13.0045 5.5189 13.3532C5.27692 13.4946 5.07795 13.6982 4.943 13.9425C4.80805 14.1868 4.74215 14.4628 4.75226 14.7412C4.74956 15.1431 4.89454 15.5322 5.16007 15.8358C5.4996 16.2088 5.90767 16.5142 6.36244 16.7357C6.99578 17.0617 7.64566 17.3551 8.30949 17.6147C8.97512 17.8701 9.62125 18.1729 10.2428 18.5209C10.8415 18.8535 11.3945 19.2612 11.8882 19.734C12.3699 20.1982 12.7608 20.7468 13.0412 21.3522C13.3371 22.0147 13.4835 22.7334 13.47 23.4579C13.4887 24.2626 13.3025 25.059 12.9286 25.7734C12.5678 26.4335 12.0577 27.0017 11.4383 27.4333C10.7791 27.892 10.0437 28.232 9.26564 28.4376C8.42725 28.664 7.56181 28.7768 6.69292 28.7727C5.58368 28.787 4.47809 28.6436 3.40985 28.3468C2.59472 28.1248 1.8053 27.8186 1.05454 27.4333C0.687689 27.2507 0.335187 27.0409 0 26.8059L1.79967 23.8629C1.91226 23.9465 2.12509 24.0818 2.43953 24.267C2.81111 24.482 3.19622 24.6731 3.59249 24.8391C4.07563 25.0439 4.57383 25.2117 5.08276 25.3412C5.62222 25.4808 6.17753 25.551 6.73504 25.5501C7.54892 25.6082 8.35817 25.3867 9.02674 24.9226C9.27483 24.7291 9.47396 24.4809 9.60824 24.1976C9.74253 23.9143 9.80828 23.6038 9.80024 23.2908C9.80582 22.8043 9.63068 22.3327 9.30822 21.966C8.91461 21.5347 8.44534 21.1778 7.92323 20.9127C7.23135 20.5475 6.52029 20.2192 5.7931 19.9293C4.9911 19.598 4.22151 19.1944 3.49403 18.7233C2.80782 18.2845 2.22506 17.7041 1.78546 17.0217C1.33339 16.2705 1.10888 15.4062 1.13874 14.5318C1.12014 13.6118 1.41493 12.7125 1.97541 11.9793C2.55669 11.236 3.32207 10.6546 4.19705 10.2917C5.14485 9.88702 6.16728 9.68275 7.19911 9.69194Z" fill="black"></path><path d="M16.2112 10.027H27.7264V13.1093H19.6979V17.7117H27.6143V20.6965H19.6979V25.3548H27.7264V28.4376H16.2112V10.027Z" fill="black"></path><path d="M31.1998 10.027H34.7149V25.3547H41.6747V28.4376H31.1998V10.027Z" fill="black"></path><path d="M44.6415 10.027H54.9617V13.1093H48.1567V17.67H54.4697V20.7383H48.1567V28.4376H44.6415V10.027Z" fill="black"></path><path d="M68.6707 20.7383H61.3027V28.4376H57.8159V10.027H61.3027V17.67H68.6707V10.027H72.1574V28.4376H68.6707V20.7383Z" fill="black"></path><path d="M74.8422 19.2182C74.8313 17.936 75.0726 16.664 75.5526 15.4734C76.0084 14.3424 76.6843 13.3115 77.5417 12.4396C78.3966 11.5739 79.4173 10.8864 80.5438 10.4174C82.9345 9.45005 85.6121 9.45005 88.0029 10.4174C89.1251 10.8866 90.1411 11.5742 90.9907 12.4396C91.844 13.3122 92.5152 14.3431 92.9662 15.4734C93.4414 16.6651 93.6801 17.9367 93.6692 19.2182C93.6808 20.5032 93.4471 21.7788 92.9803 22.9775C92.5375 24.1089 91.8733 25.1422 91.0259 26.0176C90.1816 26.8881 89.1673 27.5786 88.045 28.0471C86.847 28.5411 85.5602 28.7879 84.263 28.7726C82.9541 28.7893 81.6554 28.5425 80.4453 28.0471C79.3218 27.581 78.3072 26.8901 77.4648 26.0176C76.6213 25.1418 75.9617 24.1084 75.5242 22.9775C75.0619 21.7777 74.8306 20.5026 74.8422 19.2182ZM78.4979 19.2182C78.482 20.3217 78.7352 21.4127 79.2361 22.3981C79.6993 23.315 80.4006 24.0927 81.2679 24.651C82.1722 25.1939 83.2091 25.481 84.2662 25.481C85.3233 25.481 86.3603 25.1939 87.2646 24.651C88.1341 24.0953 88.836 23.3169 89.2963 22.3981C89.7929 21.4114 90.0437 20.3209 90.0277 19.2182C90.0442 18.1177 89.7933 17.0295 89.2963 16.0455C88.8332 15.1286 88.1318 14.3509 87.2646 13.7926C86.3618 13.2454 85.3243 12.9559 84.2662 12.9559C83.2082 12.9559 82.1707 13.2454 81.2679 13.7926C80.4029 14.3535 79.7021 15.1305 79.2361 16.0455C78.7348 17.0282 78.4814 18.1169 78.4979 19.2182Z" fill="black"></path><path d="M102.612 9.69194C103.597 9.67506 104.58 9.79953 105.529 10.0615C106.218 10.251 106.882 10.5153 107.512 10.8497C107.82 11.014 108.118 11.1956 108.405 11.3937L106.689 14.2249C106.444 14.0402 106.189 13.8703 105.923 13.716C105.512 13.475 105.076 13.2786 104.623 13.1303C104.093 12.9543 103.536 12.867 102.977 12.872C102.263 12.8377 101.554 13.0045 100.932 13.3532C100.69 13.4946 100.491 13.6982 100.356 13.9425C100.221 14.1868 100.155 14.4628 100.165 14.7412C100.163 15.1431 100.308 15.5322 100.573 15.8358C100.913 16.2088 101.321 16.5142 101.775 16.7357C102.409 17.0617 103.059 17.3551 103.722 17.6147C104.388 17.8701 105.034 18.1729 105.656 18.5209C106.255 18.8535 106.808 19.2612 107.301 19.734C107.783 20.1982 108.174 20.7469 108.454 21.3522C108.75 22.0147 108.897 22.7334 108.883 23.4579C108.902 24.2626 108.715 25.059 108.342 25.7734C107.981 26.4336 107.471 27.0017 106.851 27.4333C106.192 27.892 105.457 28.232 104.679 28.4376C103.84 28.6641 102.975 28.7768 102.106 28.7727C100.997 28.787 99.8911 28.6436 98.8229 28.3468C98.0077 28.1248 97.2183 27.8187 96.4676 27.4333C96.1007 27.2507 95.7482 27.0409 95.413 26.8059L97.2127 23.863C97.3253 23.9465 97.5381 24.0818 97.8526 24.267C98.2241 24.482 98.6092 24.6731 99.0055 24.8391C99.4886 25.0439 99.9869 25.2117 100.496 25.3412C101.035 25.4808 101.591 25.551 102.148 25.5501C102.962 25.6082 103.771 25.3867 104.44 24.9226C104.688 24.7291 104.887 24.4809 105.021 24.1976C105.156 23.9143 105.221 23.6038 105.213 23.2908C105.219 22.8043 105.044 22.3327 104.721 21.966C104.328 21.5347 103.858 21.1778 103.336 20.9127C102.644 20.5475 101.933 20.2192 101.206 19.9293C100.404 19.5981 99.6346 19.1944 98.9071 18.7234C98.2209 18.2846 97.6381 17.7042 97.1985 17.0217C96.7464 16.2706 96.5219 15.4062 96.5518 14.5319C96.5332 13.6119 96.828 12.7126 97.3885 11.9793C97.9698 11.236 98.7351 10.6546 99.6101 10.2918C100.558 9.88705 101.58 9.68277 102.612 9.69194Z" fill="black"></path><path d="M115.224 13.1093H110.57V10.027H123.379V13.1093H118.739V28.4376H115.224L115.224 13.1093Z" fill="black"></path><path d="M125.797 10.027H137.313V13.1093H129.284V17.7117H137.2V20.6965H129.284V25.3548H137.313V28.4376H125.797V10.027Z" fill="black"></path><path d="M140.729 10.027H145.847C147.559 9.96071 149.256 10.3687 150.747 11.2052C152.022 11.9745 153.029 13.1107 153.636 14.4623C154.297 15.9605 154.624 17.583 154.593 19.2182C154.625 20.858 154.298 22.4852 153.636 23.9881C153.028 25.3409 152.021 26.4788 150.747 27.2516C149.258 28.0933 147.56 28.5041 145.847 28.4376H140.729V10.027ZM144.216 13.137V25.3275H145.538C146.591 25.3702 147.633 25.0954 148.526 24.5393C149.315 24.0051 149.927 23.25 150.283 22.37C150.686 21.3779 150.884 20.3157 150.866 19.2463C150.894 18.1734 150.703 17.106 150.304 16.1081C149.949 15.2236 149.334 14.4653 148.539 13.932C147.642 13.373 146.596 13.0959 145.538 13.137L144.216 13.137Z" fill="black"></path></g><defs><clipPath id="clip0_38_7799"><rect width="224" height="37" fill="white" transform="translate(0 0.5)"></rect></clipPath></defs></svg>
