<svg width="509" height="105" xmlns="http://www.w3.org/2000/svg"><g fill="#FFF" fill-rule="evenodd"><g fill-rule="nonzero"><path d="M91.72 47.7a2.61 2.61 0 00-2.36 1.21c-.94-.59-3.49-1.83-4.48-2.34l-.36-.18a.23.23 0 00-.18 0v-.06a1.55 1.55 0 000-.22c1-20.58-19.83-36.57-40-30.38a31.64 31.64 0 00-20.57 20.59 36.54 36.54 0 00-1.3 9.19l-.76.3-.55.23c-1 .44-2 .91-3 1.42-1 .51-2 1-2.91 1.63a.31.31 0 00-.12.39.32.32 0 00.41.15c1-.46 2-.87 3-1.25s2.05-.72 3.09-1h.06c.5-.15 1-.28 1.51-.41l.78-.18h.09l.7-.15c1.05-.23 2.11-.37 3.17-.5h.12a1.09 1.09 0 10-.51-2.11c-1 .24-2 .5-2.91.81l.19-.06a33.6 33.6 0 011.19-8.19 29.25 29.25 0 0119-19 30.317 30.317 0 012.43-.63c.79-.17 3.95-.62.5 1.31a26.34 26.34 0 00-12 14.94c-1 3.23-1.39 9.6-.69 14.49.22 1.53-.3 1.83-1.25 2.23-2 .85-5.5 2.39-7.3 4.57-.7.84-1 0-1.17-.6a30.69 30.69 0 01-.64-5 .49.49 0 00-.61-.45c-.49.12-1 .24-1.46.4a.49.49 0 00-.33.48c.28 6.43 1.91 12.41 5.81 12.22a.52.52 0 00.47-.63 3 3 0 01-1.35-1.5c-1.29-3.86 10.67-8.91 26-11.2 14.08-2.11 26.17-1.15 28.27 2.06.434.55.482 1.31.12 1.91a9.5 9.5 0 01-3.81 3.75.58.58 0 00-.18.82.57.57 0 00.74.2 11.1 11.1 0 004.7-4.36 11.87 11.87 0 001-4.48c1 .31 3.64 1.37 4.65 1.78H89a2.85 2.85 0 00-.08.51 2.9 2.9 0 002.62 3 2.63 2.63 0 002.75-2.53 2.88 2.88 0 00-2.57-3.05v-.13zM72 41.2a1.37 1.37 0 01-1.44 1.42 53.31 53.31 0 00-10.1.18 1.37 1.37 0 01-1.48-1.41v-1.18a.64.64 0 01.5-.62 39.21 39.21 0 0112-.14.6.6 0 01.5.61L72 41.2zm7.06-3.35a.52.52 0 01-.63.2c-8.72-3.31-22.33-1.44-22.33-1.44a55.42 55.42 0 00-13.66 3.14 1.54 1.54 0 01-2.09-1.48 25.26 25.26 0 01.36-3.57 18.16 18.16 0 013.77-8.83c.12-.14.24-.28.37-.41a.39.39 0 01.08-.1l.06-.07.15-.16.07-.07c5.93-6.2 16.36-6.91 23.68-2.87a23.26 23.26 0 018.78 8.72c.32.6 2.34 5.27 1.39 6.94z"/><path d="M74.42 30.09a15.15 15.15 0 00-7.19-6.3 22 22 0 00-10.65-1.62 14 14 0 00-3.77.83.51.51 0 00.13 1 31.21 31.21 0 018.21.22c10 2 13.2 6.81 13.55 7 .1.05.22-.05.17-.15a10.45 10.45 0 00-.44-1M29.7 47.54a1 1 0 001.53.12 2.84 2.84 0 00.71-1.2 5.63 5.63 0 00-.21-3.51 3.4 3.4 0 00-1.47-1.69.54.54 0 00-.41-.07 1.93 1.93 0 00-1 .77.33.33 0 00.09.49 3 3 0 011.55 2.11 3.24 3.24 0 01-.79 2.55.33.33 0 000 .43M11 49a3.24 3.24 0 00-3.5 3 3.46 3.46 0 003.28 3.51 3.24 3.24 0 003.46-2.94A3.44 3.44 0 0011 49"/><path d="M104.69 52.5c.002-24.442-16.938-45.62-40.783-50.988C40.06-3.856 15.68 8.022 5.209 30.107-5.262 52.192.972 78.585 20.22 93.65l1 .79c.34.26.69.51 1 .76a52.08 52.08 0 0017.81 8.1h.15l.89.21.27.05.84.18.33.06.82.15.32.06c.54.087 1.08.167 1.62.24l.32.05.61.07.62.07.58.06.67.06h8.25l.57-.05.73-.06.6-.07.7-.08.61-.08.67-.1.62-.1.65-.1.63-.12.64-.12.63-.14.62-.13.63-.15.61-.15.77-.11.58-.16.65-.18.57-.17.64-.21c.19-.05.377-.11.56-.18l.65-.22.54-.19.65-.24.52-.2.64-.25.5-.2.66-.28.49-.21.66-.3.47-.22.66-.32.45-.23.66-.33.44-.24c.23-.11.45-.23.66-.35l.43-.24.66-.38.4-.24.67-.4.38-.24.67-.42.36-.24.67-.45.34-.23.68-.48.31-.23.69-.51.28-.21.7-.54.25-.21.71-.57.21-.19.73-.61.17-.15.75-.68.11-.09.79-.75a52.09 52.09 0 0016.11-37.74M68.35 70c-.07-.58-.14-1.17-.23-1.75-.09-.58-.17-1.16-.28-1.73-.11-.57-.2-1.15-.31-1.72-.11-.57-.25-1.15-.39-1.67a.78.78 0 011.48-.47c.22.62.37 1.18.53 1.78.16.6.3 1.17.43 1.76.25 1.19.45 2.37.64 3.56.24 1.56.4 3.13.53 4.69 1 .05 2.07.12 3.1.22a40 40 0 018.22 1.73.71.71 0 01-.34 1.37h-.05c-1.34-.23-2.64-.55-4-.7l-1-.15-.5-.07h-.5l-2-.19c-.34-.05-.68 0-1-.07l-1-.06h-.74v.51l.08 1.79v5.4c0 1.2-.09 2.39-.13 3.58-.04 1.19-.17 2.39-.28 3.58a.78.78 0 01-1.55-.07c0-1.18 0-2.36.06-3.54.06-1.18 0-2.37 0-3.55 0-1.18 0-2.36-.06-3.53L69 78.93V77v-.67h-3.34c-.68 0-1.36.06-2 .08-.64.02-1.36.07-2 .13-1.36.09-2.72.22-4.07.37-2.71.31-5.43.7-8.08 1.22a.72.72 0 01-.84-.56.72.72 0 01.51-.82c1.37-.37 2.71-.66 4.08-.93s2.73-.49 4.11-.7c.68-.11 1.38-.18 2.07-.27.69-.09 1.38-.16 2.07-.22s1.38-.13 2.08-.16c.7-.03 1.39-.1 2.09-.11 1.1-.05 2.2-.06 3.31 0-.12-1.47-.26-2.93-.44-4.38m-26.7-7.09c-.5 1.66-1.67 5.66-2.4 8.79a251.51 251.51 0 00-4.09 27.62 49.27 49.27 0 01-12.59-6.86 112.65 112.65 0 013.85-17.78 29 29 0 012.62-6.05 8.49 8.49 0 013.52-2.94l.26-.12.43-.24.55-.28c.38-.18.75-.36 1.12-.52l.57-.25.56-.23 1.14-.44c1-.37 2.7-.89 3.76-1.2.55-.16.84 0 .7.5m44.54 14c-1.56-5.81-3.67-14.91-9.9-17-6.64-2.26-13.78-2.51-20.68-2.07a65.42 65.42 0 00-14.49 2.59c-2.09.61-8.79 3.18-10.12 3.86a9.13 9.13 0 00-3.77 3.15 31.08 31.08 0 00-2.81 6.48 124 124 0 00-3.85 17c-1.17-1-2.31-2-3.4-3.11-19.41-19.404-19.498-50.844-.196-70.356C36.476-2.078 67.915-2.33 87.528 16.87c19.612 19.2 20.029 50.637.932 70.35a80.89 80.89 0 00-2.07-10.32"/></g><path d="M130.08 94.873c-3.27 0-4.395-2.792-4.395-5.347 0-2.379 1.155-5.348 4.395-5.348 1.995 0 3.21 1.108 3.66 2.201l-1.62.724c-.525-.783-1.05-1.226-2.04-1.226-1.935 0-2.535 2.024-2.535 3.649 0 1.713.765 3.633 2.535 3.633.945 0 1.53-.546 2.01-1.33l1.665.621c-.645 1.433-1.8 2.423-3.675 2.423zm6.377-.177v-10.34h4.65c2.61 0 3.45 1.521 3.45 3.146 0 1.182-.675 2.511-2.16 2.954l2.1 4.24h-2.025l-2.025-4.048h-2.19v4.048h-1.8zm1.8-5.732h2.88c1.17 0 1.56-.709 1.56-1.462 0-.694-.33-1.462-1.56-1.462h-2.88v2.924zm13.352 5.909c-3.375 0-4.605-2.792-4.605-5.347 0-2.556 1.23-5.348 4.605-5.348 3.39 0 4.605 2.792 4.605 5.348 0 2.555-1.215 5.347-4.605 5.347zm0-1.699c2.025 0 2.745-2.068 2.745-3.648 0-1.7-.705-3.649-2.745-3.649s-2.745 2.053-2.745 3.649c0 1.683.705 3.648 2.745 3.648zm8.702 1.522l-2.25-10.34h1.845l1.245 6.085c.09.473.15.754.18.99.03-.236.09-.517.21-.99l1.545-6.085h1.53l1.575 6.07c.135.473.18.754.21.99a9.48 9.48 0 01.18-.975l1.245-6.085h1.815l-2.265 10.34h-1.65L164.03 88.3a5.635 5.635 0 01-.21-.96 6.59 6.59 0 01-.195.945l-1.665 6.41h-1.65zm11.732-10.34h3.24c3.675 0 5.055 2.6 5.055 5.17 0 2.363-1.26 5.17-5.115 5.17h-3.18v-10.34zm3.435 8.67c2.235 0 3-1.876 3-3.5 0-1.743-.84-3.501-2.835-3.501h-1.8v7.001h1.635zm11.117 1.847c-1.935 0-3.39-1.034-3.96-2.674l1.665-.605c.435.945 1.275 1.595 2.355 1.595s1.8-.488 1.8-1.433c0-.99-1.065-1.359-2.25-1.758-1.5-.502-3.18-1.078-3.18-3.043 0-1.506 1.245-2.777 3.45-2.777 1.83 0 2.985.946 3.36 2.216l-1.62.532c-.27-.606-.87-1.064-1.86-1.064-.945 0-1.5.4-1.5 1.108 0 .753.915 1.064 2.01 1.418 1.53.532 3.42 1.182 3.42 3.368 0 1.994-1.62 3.117-3.69 3.117zm10.742 0c-3.375 0-4.605-2.792-4.605-5.347 0-2.556 1.23-5.348 4.605-5.348 3.39 0 4.605 2.792 4.605 5.348 0 2.555-1.215 5.347-4.605 5.347zm0-1.699c2.025 0 2.745-2.068 2.745-3.648 0-1.7-.705-3.649-2.745-3.649s-2.745 2.053-2.745 3.649c0 1.683.705 3.648 2.745 3.648zm11.522 1.699c-2.16 0-4.095-1.02-4.095-4.121v-6.396h1.8v6.396c0 1.89.93 2.422 2.295 2.422 1.35 0 2.295-.532 2.295-2.422v-6.396h1.8v6.396c0 3.057-1.875 4.12-4.095 4.12zm7.292-.177v-10.34h4.65c2.61 0 3.45 1.521 3.45 3.146 0 1.182-.675 2.511-2.16 2.954l2.1 4.24h-2.025l-2.025-4.048h-2.19v4.048h-1.8zm1.8-5.732h2.88c1.17 0 1.56-.709 1.56-1.462 0-.694-.33-1.462-1.56-1.462h-2.88v2.924zm13.142 5.909c-3.27 0-4.395-2.792-4.395-5.347 0-2.379 1.155-5.348 4.395-5.348 1.995 0 3.21 1.108 3.66 2.201l-1.62.724c-.525-.783-1.05-1.226-2.04-1.226-1.935 0-2.535 2.024-2.535 3.649 0 1.713.765 3.633 2.535 3.633.945 0 1.53-.546 2.01-1.33l1.665.621c-.645 1.433-1.8 2.423-3.675 2.423zm6.377-.177v-10.34h6.84v1.669h-5.04v2.496h3.105v1.67h-3.105v2.835h5.37v1.67h-7.17zm9.917-10.34h3.24c3.675 0 5.055 2.6 5.055 5.17 0 2.363-1.26 5.17-5.115 5.17h-3.18v-10.34zm3.435 8.67c2.235 0 3-1.876 3-3.5 0-1.743-.84-3.501-2.835-3.501h-1.8v7.001h1.635zm15.514 1.847c-1.935 0-3.39-1.034-3.96-2.674l1.665-.605c.435.945 1.275 1.595 2.355 1.595s1.8-.488 1.8-1.433c0-.99-1.065-1.359-2.25-1.758-1.5-.502-3.18-1.078-3.18-3.043 0-1.506 1.245-2.777 3.45-2.777 1.83 0 2.985.946 3.36 2.216l-1.62.532c-.27-.606-.87-1.064-1.86-1.064-.945 0-1.5.4-1.5 1.108 0 .753.915 1.064 2.01 1.418 1.53.532 3.42 1.182 3.42 3.368 0 1.994-1.62 3.117-3.69 3.117zm10.742 0c-3.375 0-4.605-2.792-4.605-5.347 0-2.556 1.23-5.348 4.605-5.348 3.39 0 4.605 2.792 4.605 5.348 0 2.555-1.215 5.347-4.605 5.347zm0-1.699c2.025 0 2.745-2.068 2.745-3.648 0-1.7-.705-3.649-2.745-3.649s-2.745 2.053-2.745 3.649c0 1.683.705 3.648 2.745 3.648zm7.502 1.522v-10.34h6.78v1.669h-4.98v2.496h3.18v1.67h-3.18v4.505h-1.8zm13.337-8.642v8.642h-1.8v-8.642h-2.985v-1.698h7.77v1.698h-2.985zm7.157 8.642l-2.25-10.34h1.845l1.245 6.085c.09.473.15.754.18.99.03-.236.09-.517.21-.99l1.545-6.085h1.53l1.575 6.07c.135.473.18.754.21.99a9.48 9.48 0 01.18-.975l1.245-6.085h1.815l-2.265 10.34h-1.65l-1.695-6.396a5.635 5.635 0 01-.21-.96 6.59 6.59 0 01-.195.945l-1.665 6.41h-1.65zm18.242 0l-.825-2.26h-4.155l-.825 2.26h-1.905l3.915-10.34h1.785l3.9 10.34h-1.89zm-1.395-3.856l-1.155-3.102a8.588 8.588 0 01-.345-1.049c-.09.31-.24.754-.345 1.05l-1.17 3.101h3.015zm5.612 3.856v-10.34h4.65c2.61 0 3.45 1.521 3.45 3.146 0 1.182-.675 2.511-2.16 2.954l2.1 4.24h-2.025l-2.025-4.048h-2.19v4.048h-1.8zm1.8-5.732h2.88c1.17 0 1.56-.709 1.56-1.462 0-.694-.33-1.462-1.56-1.462h-2.88v2.924zm9.197 5.732v-10.34h6.84v1.669h-5.04v2.496h3.105v1.67h-3.105v2.835h5.37v1.67h-7.17zm14.314 0v-10.34h4.65c2.61 0 3.45 1.521 3.45 3.146 0 1.182-.675 2.511-2.16 2.954l2.1 4.24h-2.025l-2.025-4.048h-2.19v4.048h-1.8zm1.8-5.732h2.88c1.17 0 1.56-.709 1.56-1.462 0-.694-.33-1.462-1.56-1.462h-2.88v2.924zm9.197 5.732v-10.34h6.84v1.669h-5.04v2.496h3.105v1.67h-3.105v2.835h5.37v1.67h-7.17zm13.562.177c-3.27 0-4.395-2.792-4.395-5.347 0-2.379 1.155-5.348 4.395-5.348 1.995 0 3.21 1.108 3.66 2.201l-1.62.724c-.525-.783-1.05-1.226-2.04-1.226-1.935 0-2.535 2.024-2.535 3.649 0 1.713.765 3.633 2.535 3.633.945 0 1.53-.546 2.01-1.33l1.665.621c-.645 1.433-1.8 2.423-3.675 2.423zm10.457 0c-3.375 0-4.605-2.792-4.605-5.347 0-2.556 1.23-5.348 4.605-5.348 3.39 0 4.605 2.792 4.605 5.348 0 2.555-1.215 5.347-4.605 5.347zm0-1.699c2.025 0 2.745-2.068 2.745-3.648 0-1.7-.705-3.649-2.745-3.649s-2.745 2.053-2.745 3.649c0 1.683.705 3.648 2.745 3.648zm17.057 1.522h-1.8V89.2c0-.37.03-.96.06-1.241-.135.399-.33.9-.48 1.27l-2.55 5.643-2.55-5.672c-.165-.355-.36-.842-.495-1.241.03.28.06.871.06 1.24v5.496h-1.8v-10.34h1.815l2.7 6.07c.105.252.21.532.285.769.075-.237.18-.517.285-.768l2.715-6.071h1.755v10.34zm12.827 0h-1.8V89.2c0-.37.03-.96.06-1.241-.135.399-.33.9-.48 1.27l-2.55 5.643-2.55-5.672c-.165-.355-.36-.842-.495-1.241.03.28.06.871.06 1.24v5.496h-1.8v-10.34h1.815l2.7 6.07c.105.252.21.532.285.769.075-.237.18-.517.285-.768l2.715-6.071h1.755v10.34zm3.272 0v-10.34h6.84v1.669h-5.04v2.496h3.105v1.67h-3.105v2.835h5.37v1.67h-7.17zm18.077 0h-1.635l-4.35-6.53a8.91 8.91 0 01-.435-.768c.03.237.045.532.045.769v6.529h-1.785v-10.34h1.74l4.245 6.425c.15.222.3.517.435.783a7.47 7.47 0 01-.045-.783v-6.425h1.785v10.34zm3.272-10.34h3.24c3.675 0 5.055 2.6 5.055 5.17 0 2.363-1.26 5.17-5.115 5.17h-3.18v-10.34zm3.435 8.67c2.235 0 3-1.876 3-3.5 0-1.743-.84-3.501-2.835-3.501h-1.8v7.001h1.635zm14.102 1.67l-.825-2.26h-4.155l-.825 2.26h-1.905l3.915-10.34h1.785l3.9 10.34h-1.89zm-1.395-3.856l-1.155-3.102a8.588 8.588 0 01-.345-1.049c-.09.31-.24.754-.345 1.05l-1.17 3.101h3.015zm8.522-4.786v8.642h-1.8v-8.642h-2.985v-1.698h7.77v1.698h-2.985zm5.657 8.642v-10.34h1.8v10.34h-1.8zm9.377.177c-3.375 0-4.605-2.792-4.605-5.347 0-2.556 1.23-5.348 4.605-5.348 3.39 0 4.605 2.792 4.605 5.348 0 2.555-1.215 5.347-4.605 5.347zm0-1.699c2.025 0 2.745-2.068 2.745-3.648 0-1.7-.705-3.649-2.745-3.649s-2.745 2.053-2.745 3.649c0 1.683.705 3.648 2.745 3.648zm15.662 1.522h-1.635l-4.35-6.53a8.91 8.91 0 01-.435-.768c.03.237.045.532.045.769v6.529h-1.785v-10.34h1.74l4.245 6.425c.15.222.3.517.435.783a7.47 7.47 0 01-.045-.783v-6.425h1.785v10.34zm6.632.177c-1.935 0-3.39-1.034-3.96-2.674l1.665-.605c.435.945 1.275 1.595 2.355 1.595s1.8-.488 1.8-1.433c0-.99-1.065-1.359-2.25-1.758-1.5-.502-3.18-1.078-3.18-3.043 0-1.506 1.245-2.777 3.45-2.777 1.83 0 2.985.946 3.36 2.216l-1.62.532c-.27-.606-.87-1.064-1.86-1.064-.945 0-1.5.4-1.5 1.108 0 .753.915 1.064 2.01 1.418 1.53.532 3.42 1.182 3.42 3.368 0 1.994-1.62 3.117-3.69 3.117zM150.988 57.162h-9.066c-1.247 0-1.912.656-2.162 1.72l-2.246 9.256c-.415 1.801-1.746 2.784-3.66 2.784h-5.405c-1.83 0-2.828-.983-2.329-2.784l13.224-49.143c.5-1.72 1.747-2.703 3.577-2.703h7.568c1.83 0 3.077.983 3.576 2.703l12.975 48.897c.5 1.802-.499 3.03-2.329 3.03h-5.655c-1.913 0-3.244-.983-3.66-2.784l-2.245-9.256c-.25-1.064-.915-1.72-2.163-1.72zm-5.95-9.5h4.906c.915 0 1.497-.41 1.248-1.393l-3.66-15.48-3.742 15.48c-.25.983.332 1.392 1.247 1.392zm36.757-28.586V68.22c0 1.802-.915 2.703-2.827 2.703h-5.24c-1.83 0-2.745-.9-2.745-2.703V19.076c0-1.883.915-2.784 2.745-2.784h5.24c1.912 0 2.827.9 2.827 2.784zm6.817 42.345V37.67h-.915c-1.83 0-2.744-.901-2.744-2.703v-3.604c0-1.802.914-2.703 2.744-2.703h.915V22.68c0-1.72.333-3.685 2.578-4.34l4.408-1.23c2.412-.655 3.826.165 3.826 2.458v9.091h3.577c1.83 0 2.744.901 2.744 2.703v3.604c0 1.802-.915 2.703-2.744 2.703h-3.577v22.196c0 2.13 1.248 2.867 2.828 2.867h1.164c1.248 0 2.08.41 2.08 2.293v2.785c0 2.785-2.828 3.931-5.822 3.931-5.49 0-11.062-3.03-11.062-10.32zm49.567-19.411v8.108c0 1.802-.915 2.703-2.745 2.703h-16.551v2.949c0 4.587 2.162 7.044 7.236 7.044 3.493 0 4.824-1.393 7.07-1.393 1.995 0 2.744 1.557 2.744 2.703v1.31c0 3.44-3.327 6.307-10.48 6.307-11.394 0-17.382-6.552-17.382-16.872v-12.86c0-8.681 6.404-14.169 15.054-14.169s15.054 5.488 15.054 14.17zm-10.73 2.703V42.01c0-3.932-1.663-5.897-4.324-5.897-2.662 0-4.242 1.965-4.242 5.897v2.703h8.567zm27.028-.246v23.752c0 1.802-.915 2.703-2.828 2.703h-5.24c-1.83 0-2.744-.9-2.744-2.703V31.444c0-1.884.914-2.785 2.744-2.785h5.24c1.996 0 2.828.901 2.828 2.949 1.663-1.72 4.241-3.768 7.485-3.768 1.996 0 2.246 1.229 2.246 2.294v4.34c0 2.376-2.08 2.622-4.076 2.867-3.41.41-5.655 3.113-5.655 7.126zm33.597 23.752V42.665c0-3.358-1.58-5.815-4.74-5.815s-4.741 2.457-4.741 5.815V68.22c0 1.802-.915 2.703-2.828 2.703h-5.24c-1.83 0-2.744-.9-2.744-2.703V31.444c0-1.884.915-2.785 2.744-2.785h5.24c1.83 0 2.828.901 2.828 2.703 0 0 2.828-3.522 8.4-3.522 8.068 0 11.894 5.897 11.894 14.825V68.22c0 1.802-.915 2.703-2.828 2.703h-5.24c-1.83 0-2.745-.9-2.745-2.703zm29.69-32.516c-4.825 0-6.655 1.229-8.235 1.229-.998 0-2.245-.492-2.245-2.048v-2.211c0-3.522 5.406-4.833 10.645-4.833 7.236 0 16.635 1.802 16.635 13.433v26.865c0 1.883-.915 2.784-2.745 2.784h-3.992c-1.747 0-2.662-.737-2.828-2.13-.25.246-2.911 2.95-7.818 2.95-8.068 0-13.723-5.98-13.723-13.597 0-12.777 10.063-16.545 20.293-17.61-.166-2.866-1.33-4.832-5.988-4.832zm-3.494 21.295c0 3.03 1.497 5.57 4.74 5.57 3.078 0 4.741-2.457 4.741-5.57v-8.763c-4.824 1.064-9.481 2.62-9.481 8.763zm26.611 4.423V37.67h-.915c-1.83 0-2.744-.901-2.744-2.703v-3.604c0-1.802.915-2.703 2.744-2.703h.915V22.68c0-1.72.333-3.685 2.579-4.34l4.408-1.23c2.412-.655 3.825.165 3.825 2.458v9.091h3.577c1.83 0 2.744.901 2.744 2.703v3.604c0 1.802-.914 2.703-2.744 2.703h-3.577v22.196c0 2.13 1.248 2.867 2.828 2.867h1.165c1.247 0 2.079.41 2.079 2.293v2.785c0 2.785-2.828 3.931-5.822 3.931-5.49 0-11.062-3.03-11.062-10.32zm31.935-29.977V68.22c0 1.802-.915 2.703-2.828 2.703h-5.24c-1.83 0-2.745-.9-2.745-2.703V31.444c0-1.884.915-2.785 2.745-2.785h5.24c1.913 0 2.828.901 2.828 2.785zm0-12.368v3.44c0 1.802-.915 2.703-2.828 2.703h-5.24c-1.83 0-2.745-.9-2.745-2.703v-3.44c0-1.883.915-2.784 2.745-2.784h5.24c1.913 0 2.828.9 2.828 2.784zm31.435 9.583h4.075c1.83 0 3.16 1.229 2.329 3.604l-12.06 35.956c-.416 1.393-1.414 2.703-3.576 2.703h-3.826c-2.162 0-3.16-1.31-3.576-2.703l-11.395-35.956c-.748-2.375.5-3.604 2.329-3.604h4.574c2.246 0 3.244 1.065 3.66 2.785l6.654 23.261 7.152-23.26c.5-1.72 1.414-2.786 3.66-2.786zm39.586 13.35v8.11c0 1.801-.915 2.702-2.745 2.702h-16.55v2.949c0 4.587 2.162 7.044 7.235 7.044 3.493 0 4.824-1.393 7.07-1.393 1.996 0 2.744 1.557 2.744 2.703v1.31c0 3.44-3.327 6.307-10.48 6.307-11.394 0-17.382-6.552-17.382-16.872v-12.86c0-8.681 6.404-14.169 15.054-14.169s15.054 5.488 15.054 14.17zm-10.73 2.704V42.01c0-3.932-1.663-5.897-4.324-5.897-2.662 0-4.242 1.965-4.242 5.897v2.703h8.567zm43.338-28.421c1.913 0 2.828.9 2.828 2.784v3.932c0 1.802-.915 2.703-2.828 2.703h-7.153c-1.08 0-1.663.573-1.663 1.638v40.87c0 1.802-.915 2.703-2.745 2.703h-5.655c-1.913 0-2.828-.9-2.828-2.703V27.35c0-1.065-.582-1.638-1.664-1.638h-7.152c-1.913 0-2.828-.901-2.828-2.703v-3.932c0-1.883.915-2.784 2.828-2.784h28.86zm.662 41.526V41.764c0-9.747 7.652-13.924 15.47-13.924 7.818 0 15.47 4.177 15.47 13.924v16.054c0 9.746-7.652 13.923-15.47 13.923-7.818 0-15.47-4.177-15.47-13.923zm10.812-16.054v16.054c0 3.194 1.83 4.914 4.658 4.914 2.828 0 4.657-1.72 4.657-4.914V41.764c0-3.194-1.83-4.914-4.657-4.914-2.828 0-4.658 1.72-4.658 4.914z"/></g></svg>