<?xml version="1.0" encoding="utf-8"?>
<!-- Generator: Adobe Illustrator 21.1.0, SVG Export Plug-In . SVG Version: 6.00 Build 0)  -->
<svg version="1.1" id="Layer_1"
	xmlns="http://www.w3.org/2000/svg"
	xmlns:xlink="http://www.w3.org/1999/xlink" x="0px" y="0px"
     viewBox="0 0 653 102.6" style="enable-background:new 0 0 653 102.6;" xml:space="preserve">
	<style type="text/css">
    .st0{fill:#FF6600;}
    .st1{fill:#FFFFFF;}
    .st2{fill:#FFFFFF;}
</style>
	<path class="st0" d="M66.9,54.5c0-19.1-6.8-27.8-10.4-31.1c-0.7-0.6-1.8-0.1-1.7,0.9c0.7,10.8-12.9,13.5-12.9,30.4h0
    c0,0,0,0.1,0,0.1c0,10.3,7.8,18.7,17.4,18.7c9.6,0,17.4-8.4,17.4-18.7c0,0,0-0.1,0-0.1h0c0-4.8-1.8-9.4-3.6-12.8
    c-0.4-0.7-1.4-0.4-1.3,0.2C75.1,56.7,66.9,65.7,66.9,54.5z"/>
	<g>
		<path class="st0" d="M46.2,94.8c-0.4,0-0.9-0.2-1.2-0.5L0.5,49.8c-0.6-0.6-0.6-1.7,0-2.4l47-47C47.8,0.2,48.2,0,48.6,0h13.5
        c0.8,0,1.3,0.5,1.5,1c0.2,0.5,0.2,1.2-0.4,1.8L19.1,47c-0.9,0.9-0.9,2.3,0,3.2L54,85.2c0.6,0.6,0.6,1.7,0,2.4l-6.7,6.8
        C47,94.6,46.6,94.8,46.2,94.8z"/>
	</g>
	<g>
		<path class="st0" d="M55.1,102.6c-0.8,0-1.3-0.5-1.5-1c-0.2-0.5-0.2-1.2,0.4-1.8l44.2-44.2c0.4-0.4,0.7-1,0.7-1.6
        c0-0.6-0.2-1.2-0.7-1.6L63.2,17.4c-0.6-0.6-0.6-1.7,0-2.4l6.8-6.8c0.3-0.3,0.7-0.5,1.2-0.5S72,8,72.3,8.3l44.4,44.5
        c0.3,0.3,0.5,0.7,0.5,1.2s-0.2,0.9-0.5,1.2l-47,47c-0.3,0.3-0.7,0.5-1.2,0.5H55.1z"/>
	</g>
	<g>
		<g>
			<path class="st1" d="M167.2,32c-0.2,0.4-0.5,0.6-1,0.6c-0.3,0-0.7-0.2-1.2-0.7c-0.5-0.5-1.2-1-2-1.5c-0.9-0.6-1.9-1.1-3.2-1.5
            c-1.3-0.5-2.9-0.7-4.8-0.7c-1.9,0-3.5,0.3-5,0.8c-1.4,0.5-2.6,1.3-3.6,2.2s-1.7,2-2.2,3.2c-0.5,1.2-0.8,2.5-0.8,3.8
            c0,1.8,0.4,3.2,1.1,4.4c0.7,1.1,1.7,2.1,3,2.9c1.2,0.8,2.6,1.5,4.2,2c1.6,0.6,3.2,1.1,4.8,1.6c1.6,0.5,3.2,1.1,4.8,1.8
            c1.6,0.6,2.9,1.5,4.2,2.4s2.2,2.2,3,3.6c0.7,1.4,1.1,3.2,1.1,5.3c0,2.2-0.4,4.2-1.1,6.1c-0.7,1.9-1.8,3.6-3.2,5
            c-1.4,1.4-3.2,2.5-5.2,3.4c-2.1,0.8-4.4,1.2-7,1.2c-3.4,0-6.4-0.6-8.8-1.8c-2.5-1.2-4.6-2.9-6.5-5l1-1.6c0.3-0.4,0.6-0.5,1-0.5
            c0.2,0,0.5,0.1,0.8,0.4c0.3,0.3,0.8,0.7,1.2,1.1c0.5,0.4,1.1,0.9,1.8,1.4c0.7,0.5,1.5,1,2.4,1.4c0.9,0.4,1.9,0.8,3.1,1.1
            c1.2,0.3,2.5,0.4,4,0.4c2.1,0,3.9-0.3,5.5-0.9c1.6-0.6,3-1.5,4.1-2.5s2-2.4,2.6-3.8c0.6-1.5,0.9-3.1,0.9-4.7
            c0-1.8-0.4-3.3-1.1-4.5c-0.7-1.2-1.7-2.2-3-3c-1.2-0.8-2.6-1.5-4.2-2c-1.6-0.5-3.2-1.1-4.8-1.6c-1.6-0.5-3.2-1.1-4.8-1.7
            c-1.6-0.6-2.9-1.4-4.2-2.4c-1.2-1-2.2-2.2-3-3.7c-0.7-1.5-1.1-3.3-1.1-5.6c0-1.7,0.3-3.4,1-5c0.7-1.6,1.6-3,2.9-4.3
            c1.3-1.2,2.8-2.2,4.7-3c1.9-0.7,4-1.1,6.4-1.1c2.7,0,5.1,0.4,7.3,1.3c2.1,0.9,4.1,2.2,5.9,3.9L167.2,32z"/>
			<path class="st2" d="M152.9,78.8c-3.5,0-6.6-0.6-9.1-1.9c-2.5-1.2-4.8-3-6.7-5.1l-0.3-0.3l1.3-2c0.6-0.7,1.1-0.8,1.5-0.8
            c0.4,0,0.8,0.2,1.2,0.6c0.3,0.3,0.8,0.7,1.3,1.1c0.5,0.4,1.1,0.9,1.7,1.4c0.7,0.5,1.4,0.9,2.3,1.3c0.9,0.4,1.9,0.8,3,1
            c1.1,0.3,2.4,0.4,3.9,0.4c2,0,3.8-0.3,5.3-0.9c1.5-0.6,2.8-1.4,3.9-2.4c1-1,1.9-2.2,2.4-3.6c0.6-1.4,0.8-2.9,0.8-4.5
            c0-1.7-0.3-3.1-1-4.2c-0.7-1.1-1.6-2-2.8-2.8c-1.2-0.8-2.5-1.4-4-1.9c-1.5-0.5-3.1-1.1-4.8-1.6c-1.7-0.5-3.3-1.1-4.8-1.7
            c-1.6-0.7-3.1-1.5-4.3-2.5c-1.3-1-2.3-2.4-3.1-3.9c-0.8-1.6-1.2-3.5-1.2-5.8c0-1.8,0.3-3.6,1-5.3c0.7-1.7,1.7-3.2,3-4.5
            c1.3-1.3,3-2.3,4.9-3.1c1.9-0.8,4.2-1.2,6.6-1.2c2.8,0,5.3,0.4,7.5,1.3c2.2,0.9,4.2,2.3,6.1,4.1l0.3,0.3l-1.1,2.1
            c-0.6,1.1-1.7,1.4-3.1,0.1c-0.5-0.4-1.1-0.9-2-1.4c-0.8-0.5-1.9-1-3.1-1.5c-1.2-0.4-2.7-0.7-4.6-0.7c-1.8,0-3.4,0.3-4.8,0.8
            c-1.3,0.5-2.5,1.2-3.4,2.1c-0.9,0.9-1.6,1.9-2.1,3c-0.5,1.1-0.7,2.4-0.7,3.6c0,1.6,0.3,3,1,4c0.7,1.1,1.6,2,2.8,2.8
            c1.2,0.8,2.5,1.4,4,2c1.5,0.5,3.1,1.1,4.8,1.6c1.6,0.5,3.3,1.1,4.8,1.8c1.6,0.7,3.1,1.5,4.3,2.5c1.3,1,2.3,2.3,3.1,3.8
            c0.8,1.5,1.2,3.4,1.2,5.6c0,2.2-0.4,4.4-1.2,6.4c-0.8,2-1.9,3.7-3.4,5.2c-1.5,1.5-3.3,2.6-5.4,3.5
            C158.1,78.3,155.6,78.8,152.9,78.8z M138.4,71.3c1.7,1.9,3.7,3.4,6,4.5c2.4,1.2,5.3,1.8,8.6,1.8c2.5,0,4.8-0.4,6.8-1.2
            c2-0.8,3.6-1.9,5-3.2c1.3-1.3,2.4-3,3.1-4.8c0.7-1.8,1.1-3.8,1.1-5.9c0-2-0.4-3.7-1-5.1c-0.7-1.3-1.6-2.5-2.8-3.4
            c-1.2-0.9-2.5-1.7-4-2.4c-1.5-0.6-3.1-1.2-4.7-1.8c-1.6-0.5-3.2-1.1-4.8-1.6c-1.6-0.6-3-1.3-4.3-2.1c-1.3-0.8-2.3-1.9-3.1-3.1
            c-0.8-1.2-1.2-2.8-1.2-4.7c0-1.4,0.3-2.8,0.8-4.1c0.5-1.3,1.3-2.5,2.3-3.4c1-1,2.3-1.8,3.8-2.3c1.5-0.6,3.3-0.8,5.2-0.8
            c1.9,0,3.6,0.2,5,0.7c1.3,0.5,2.5,1,3.3,1.6c0.9,0.6,1.6,1.1,2.1,1.6c0.6,0.5,0.8,0.5,0.8,0.5c0.1,0,0.3,0,0.4-0.3l0.7-1.3
            c-1.6-1.5-3.4-2.7-5.3-3.5c-2.1-0.8-4.4-1.2-7-1.2c-2.3,0-4.4,0.4-6.2,1.1c-1.8,0.7-3.3,1.7-4.5,2.8c-1.2,1.2-2.1,2.5-2.8,4.1
            c-0.6,1.5-0.9,3.1-0.9,4.8c0,2.1,0.4,3.9,1.1,5.3c0.7,1.4,1.6,2.6,2.8,3.5c1.2,0.9,2.5,1.7,4,2.3c1.5,0.6,3.1,1.2,4.7,1.7
            c1.6,0.5,3.2,1,4.8,1.6c1.6,0.6,3,1.2,4.3,2.1c1.3,0.8,2.4,1.9,3.1,3.2c0.8,1.3,1.2,2.9,1.2,4.9c0,1.8-0.3,3.4-0.9,5
            c-0.6,1.6-1.5,2.9-2.7,4c-1.2,1.1-2.6,2-4.3,2.7c-1.7,0.6-3.6,1-5.7,1c-1.5,0-2.9-0.2-4.2-0.5c-1.2-0.3-2.3-0.7-3.2-1.1
            c-0.9-0.4-1.8-0.9-2.5-1.5c-0.7-0.5-1.3-1-1.8-1.4c-0.5-0.4-0.9-0.8-1.2-1.1c-0.3-0.3-0.5-0.3-0.5-0.3c-0.1,0-0.3,0-0.5,0.3
            L138.4,71.3z"/>
		</g>
		<g>
			<path class="st1" d="M226.7,51.6c0,4-0.6,7.6-1.8,10.9c-1.2,3.3-2.9,6.1-5.1,8.4c-2.2,2.3-4.8,4.1-7.8,5.4
            c-3,1.3-6.4,1.9-10.1,1.9c-3.6,0-7-0.6-10-1.9c-3-1.3-5.6-3-7.8-5.4c-2.2-2.3-3.9-5.1-5.1-8.4c-1.2-3.3-1.8-6.9-1.8-10.9
            c0-4,0.6-7.6,1.8-10.9c1.2-3.3,2.9-6.1,5.1-8.4c2.2-2.3,4.8-4.1,7.8-5.4c3-1.3,6.4-1.9,10-1.9c3.7,0,7.1,0.6,10.1,1.9
            c3,1.3,5.6,3,7.8,5.4c2.2,2.3,3.9,5.1,5.1,8.4C226.1,44,226.7,47.6,226.7,51.6z M222.8,51.6c0-3.6-0.5-6.9-1.5-9.8
            c-1-2.9-2.4-5.3-4.2-7.3c-1.8-2-4-3.5-6.6-4.6c-2.6-1.1-5.4-1.6-8.5-1.6c-3.1,0-5.9,0.5-8.5,1.6c-2.6,1.1-4.8,2.6-6.6,4.6
            c-1.8,2-3.3,4.4-4.3,7.3c-1,2.9-1.5,6.1-1.5,9.8c0,3.6,0.5,6.9,1.5,9.8c1,2.9,2.4,5.3,4.3,7.3c1.8,2,4,3.5,6.6,4.6
            c2.6,1.1,5.4,1.6,8.5,1.6c3.1,0,6-0.5,8.5-1.6c2.6-1,4.8-2.6,6.6-4.6c1.8-2,3.2-4.4,4.2-7.3C222.3,58.5,222.8,55.3,222.8,51.6z"/>
			<path class="st2" d="M202,78.7c-3.7,0-7.2-0.7-10.2-1.9c-3.1-1.3-5.8-3.1-8-5.5c-2.2-2.4-4-5.2-5.2-8.6c-1.2-3.3-1.9-7.1-1.9-11.1
            c0-4,0.6-7.8,1.9-11.1c1.2-3.3,3-6.2,5.2-8.6c2.2-2.4,4.9-4.2,8-5.5c3.1-1.3,6.5-2,10.2-2c3.8,0,7.2,0.7,10.3,1.9
            c3.1,1.3,5.8,3.1,8,5.5c2.2,2.4,4,5.3,5.2,8.6c1.2,3.3,1.8,7,1.8,11.1c0,4.1-0.6,7.8-1.8,11.1c-1.2,3.3-3,6.2-5.2,8.6
            c-2.2,2.4-4.9,4.2-8,5.5C209.2,78.1,205.7,78.7,202,78.7z M202,25.7c-3.5,0-6.8,0.6-9.8,1.9c-2.9,1.2-5.5,3-7.6,5.2
            c-2.1,2.2-3.8,5-4.9,8.2c-1.2,3.2-1.8,6.8-1.8,10.7c0,3.9,0.6,7.5,1.8,10.7c1.2,3.2,2.8,5.9,4.9,8.2c2.1,2.2,4.7,4,7.6,5.2
            c2.9,1.2,6.2,1.8,9.8,1.8c3.6,0,6.9-0.6,9.8-1.8c2.9-1.2,5.5-3,7.6-5.2c2.1-2.2,3.8-5,4.9-8.1c1.2-3.2,1.8-6.8,1.8-10.7
            c0-3.9-0.6-7.5-1.8-10.7c-1.2-3.2-2.8-5.9-4.9-8.2c-2.1-2.2-4.7-4-7.6-5.2C208.9,26.3,205.6,25.7,202,25.7z"/>
		</g>
		<g>
			<path class="st1" d="M256.4,74.9c2.5,0,4.7-0.4,6.7-1.3c2-0.9,3.6-2.1,5-3.6c1.4-1.5,2.4-3.4,3.1-5.4c0.7-2.1,1.1-4.3,1.1-6.8
            V25.7h3.7v32.1c0,2.9-0.5,5.5-1.4,8c-0.9,2.5-2.2,4.6-3.9,6.5c-1.7,1.8-3.8,3.3-6.2,4.3c-2.4,1-5.2,1.6-8.2,1.6
            c-3,0-5.8-0.5-8.2-1.6c-2.4-1.1-4.5-2.5-6.2-4.3c-1.7-1.8-3-4-3.9-6.5c-0.9-2.5-1.4-5.2-1.4-8V25.7h3.8v32c0,2.4,0.4,4.7,1.1,6.8
            c0.7,2.1,1.8,3.9,3.1,5.4c1.4,1.5,3,2.7,5,3.6C251.6,74.5,253.9,74.9,256.4,74.9z"/>
			<path class="st2" d="M256.4,78.8c-3.1,0-5.9-0.5-8.4-1.6c-2.5-1.1-4.7-2.6-6.4-4.5c-1.7-1.9-3.1-4.2-4-6.7
            c-0.9-2.5-1.4-5.3-1.4-8.2V25.1h5v32.7c0,2.3,0.4,4.5,1,6.6c0.7,2,1.7,3.8,3,5.2c1.3,1.5,2.9,2.6,4.8,3.5c1.9,0.8,4,1.3,6.4,1.3
            c2.4,0,4.6-0.4,6.4-1.2c1.9-0.8,3.5-2,4.8-3.5c1.3-1.5,2.3-3.2,3-5.2c0.7-2,1-4.2,1-6.6V25.1h5v32.7c0,2.9-0.5,5.7-1.4,8.2
            c-0.9,2.5-2.3,4.8-4,6.7c-1.7,1.9-3.9,3.4-6.4,4.5C262.3,78.3,259.5,78.8,256.4,78.8z M237.3,26.3v31.5c0,2.8,0.4,5.4,1.3,7.8
            c0.9,2.4,2.1,4.5,3.8,6.3c1.6,1.8,3.6,3.2,6,4.2c2.3,1,5,1.5,8,1.5c2.9,0,5.6-0.5,8-1.5c2.3-1,4.4-2.4,6-4.2
            c1.6-1.8,2.9-3.9,3.8-6.3c0.9-2.4,1.3-5,1.3-7.8V26.3h-2.5v31.5c0,2.5-0.4,4.8-1.1,7c-0.7,2.2-1.8,4.1-3.3,5.7
            c-1.4,1.6-3.2,2.9-5.2,3.8c-2,0.9-4.4,1.4-6.9,1.4c-2.6,0-4.9-0.5-6.9-1.4c-2-0.9-3.8-2.2-5.2-3.8c-1.4-1.6-2.5-3.5-3.2-5.7
            c-0.7-2.1-1.1-4.5-1.1-7V26.3H237.3z"/>
		</g>
		<g>
			<path class="st1" d="M297.5,51.3c1,0,0.9,0,0.9,0l2.2,0c2.3,0,4.4-0.3,6.2-0.8c1.8-0.6,3.4-1.3,4.6-2.4c1.3-1,2.2-2.3,2.9-3.7
            c0.7-1.4,1-3.1,1-4.9c0-3.7-1.2-6.4-3.6-8.2c-2.4-1.8-5.9-2.7-10.6-2.7h-9.5v22.7v2.8v23.5h-3.7V25.7h13.2c6,0,10.5,1.2,13.4,3.5
            c3,2.3,4.4,5.7,4.4,10.2c0,2-0.3,3.8-1,5.4c-0.7,1.6-1.7,3.1-3,4.3c-1.3,1.2-2.8,2.3-4.6,3c-1.8,0.8-3.9,1.3-6.1,1.6
            c0.6,0.4,1.1,0.9,1.6,1.5l17.9,22.4h-3.3c-0.4,0-0.7-0.1-1-0.2c-0.3-0.1-0.6-0.4-0.8-0.7l-16.6-21c-0.4-0.5-0.9-0.9-1.3-1.1
            c-0.5-0.2-3.4-0.3-4.4-0.3C296.3,51.6,296.7,51.3,297.5,51.3z"/>
			<path class="st2" d="M325,78.2h-4.5c-0.5,0-0.9-0.1-1.3-0.3c-0.4-0.2-0.7-0.5-1-0.9l-16.6-21c-0.4-0.5-0.7-0.8-1.1-1
            c-0.4-0.1-2.8-0.3-4.1-0.3h-0.6v-2.6c0-0.9,0.2-1.4,1.8-1.4c0.9,0,1,0,1,0l2.2,0c2.2,0,4.2-0.3,6-0.8c1.7-0.5,3.2-1.3,4.4-2.3
            c1.2-1,2.1-2.1,2.7-3.5c0.6-1.4,0.9-2.9,0.9-4.6c0-3.5-1.1-6-3.4-7.7c-2.3-1.7-5.7-2.6-10.2-2.6h-8.9v48.9h-5V25.1h13.9
            c6.1,0,10.7,1.2,13.8,3.6c3.1,2.4,4.7,6,4.7,10.7c0,2.1-0.4,4-1.1,5.7c-0.7,1.7-1.8,3.2-3.1,4.5c-1.3,1.3-3,2.3-4.8,3.2
            c-1.5,0.6-3.1,1.1-4.9,1.4c0.2,0.2,0.4,0.4,0.6,0.7L325,78.2z M296.9,53.5c1.1,0,3.4,0.1,4,0.4c0.6,0.3,1.1,0.7,1.6,1.3l16.6,21
            c0.2,0.3,0.4,0.5,0.6,0.6c0.2,0.1,0.4,0.2,0.7,0.2h2l-17.1-21.4c-0.4-0.6-0.9-1-1.4-1.3l-1.5-0.9l1.8-0.2c2.2-0.2,4.2-0.7,5.9-1.5
            c1.7-0.8,3.2-1.7,4.5-2.9c1.2-1.2,2.2-2.5,2.8-4.1c0.6-1.6,1-3.3,1-5.2c0-4.3-1.4-7.5-4.2-9.7c-2.8-2.2-7.2-3.3-13-3.3h-12.6V77
            h2.5V28h10.1c4.7,0,8.4,0.9,10.9,2.8c2.6,1.9,3.9,4.8,3.9,8.7c0,1.9-0.4,3.6-1,5.1c-0.7,1.5-1.7,2.8-3.1,3.9
            c-1.3,1.1-2.9,1.9-4.8,2.5c-1.9,0.6-4,0.9-6.4,0.9l-2.2,0c-0.1,0-0.2,0-0.9,0C297.3,51.9,297,51.9,296.9,53.5z"/>
		</g>
		<g>
			<path class="st1" d="M367.6,68.8c0.2,0,0.5,0.1,0.6,0.3l1.5,1.6c-1.1,1.1-2.2,2.2-3.5,3.1c-1.3,0.9-2.7,1.7-4.2,2.3
            c-1.5,0.6-3.2,1.1-4.9,1.5c-1.8,0.4-3.8,0.5-5.9,0.5c-3.6,0-6.9-0.6-9.9-1.9c-3-1.3-5.6-3-7.7-5.4c-2.1-2.3-3.8-5.1-5-8.4
            c-1.2-3.3-1.8-6.9-1.8-10.9c0-3.9,0.6-7.5,1.9-10.8c1.2-3.3,3-6,5.2-8.4c2.2-2.3,4.9-4.1,8-5.4c3.1-1.3,6.6-1.9,10.3-1.9
            c1.9,0,3.6,0.1,5.2,0.4c1.6,0.3,3,0.7,4.4,1.2c1.4,0.5,2.6,1.2,3.8,2c1.2,0.8,2.4,1.7,3.5,2.7l-1.1,1.6c-0.2,0.3-0.5,0.4-0.9,0.4
            c-0.2,0-0.5-0.1-0.8-0.4c-0.3-0.3-0.8-0.6-1.3-1c-0.5-0.4-1.2-0.8-1.9-1.2c-0.7-0.5-1.6-0.9-2.7-1.2c-1-0.4-2.2-0.7-3.6-1
            c-1.3-0.3-2.9-0.4-4.6-0.4c-3.2,0-6.1,0.5-8.7,1.6c-2.6,1.1-4.9,2.6-6.8,4.7c-1.9,2-3.4,4.5-4.5,7.3s-1.6,6.1-1.6,9.7
            c0,3.7,0.5,6.9,1.6,9.8c1.1,2.9,2.5,5.3,4.4,7.3c1.9,2,4.1,3.5,6.6,4.6c2.5,1.1,5.3,1.6,8.2,1.6c1.9,0,3.5-0.1,5-0.4
            c1.5-0.2,2.8-0.6,4-1.1c1.2-0.5,2.4-1.1,3.4-1.8c1.1-0.7,2.1-1.5,3.1-2.5c0.1-0.1,0.2-0.2,0.3-0.2
            C367.3,68.9,367.5,68.8,367.6,68.8z"/>
			<path class="st2" d="M351.1,78.8c-3.7,0-7.1-0.7-10.1-1.9c-3.1-1.3-5.7-3.1-7.9-5.5c-2.2-2.4-3.9-5.2-5.1-8.6
            c-1.2-3.3-1.8-7.1-1.8-11.1c0-4,0.6-7.7,1.9-11c1.3-3.3,3.1-6.2,5.3-8.6c2.3-2.4,5.1-4.3,8.2-5.6c3.2-1.3,6.7-2,10.6-2
            c1.9,0,3.7,0.1,5.3,0.4c1.6,0.3,3.1,0.7,4.5,1.2c1.4,0.5,2.7,1.2,3.9,2c1.2,0.8,2.4,1.7,3.6,2.8l0.4,0.4l-1.4,2.1
            c-0.2,0.3-0.6,0.7-1.4,0.7c-0.4,0-0.7-0.2-1.2-0.5c-0.3-0.3-0.8-0.6-1.3-0.9c-0.5-0.4-1.1-0.8-1.9-1.2c-0.7-0.4-1.6-0.8-2.6-1.2
            c-1-0.4-2.2-0.7-3.5-0.9c-1.3-0.2-2.8-0.4-4.5-0.4c-3.1,0-5.9,0.5-8.5,1.6c-2.5,1.1-4.8,2.6-6.6,4.5c-1.8,1.9-3.3,4.3-4.3,7.1
            c-1,2.8-1.6,6-1.6,9.4c0,3.6,0.5,6.8,1.5,9.6c1,2.8,2.4,5.2,4.2,7.1c1.8,1.9,3.9,3.4,6.4,4.4c2.4,1,5.1,1.5,8,1.5
            c1.8,0,3.5-0.1,4.9-0.4c1.4-0.2,2.7-0.6,3.9-1.1c1.2-0.5,2.3-1.1,3.3-1.7c1-0.7,2-1.5,3-2.4c0.2-0.2,0.3-0.2,0.5-0.3
            c0.5-0.3,1.3-0.2,1.7,0.3l1.9,2l-0.4,0.4c-1.1,1.2-2.3,2.2-3.6,3.2c-1.3,0.9-2.7,1.8-4.3,2.4c-1.5,0.7-3.2,1.2-5.1,1.5
            C355.3,78.6,353.3,78.8,351.1,78.8z M352.2,25.7c-3.7,0-7.1,0.6-10.1,1.9c-3,1.2-5.7,3-7.8,5.3c-2.2,2.3-3.9,5-5.1,8.2
            c-1.2,3.2-1.8,6.7-1.8,10.6c0,3.9,0.6,7.5,1.8,10.7c1.2,3.2,2.8,5.9,4.9,8.2c2.1,2.2,4.6,4,7.5,5.2c2.9,1.2,6.1,1.8,9.6,1.8
            c2.1,0,4-0.2,5.8-0.5c1.7-0.3,3.4-0.8,4.8-1.5c1.5-0.6,2.8-1.4,4-2.3c1.1-0.8,2.1-1.7,3-2.6l-1.1-1.2c-0.1-0.1-0.2-0.1-0.3,0
            c-0.1,0-0.2,0.1-0.3,0.2c-1,0.9-2.1,1.8-3.2,2.5c-1.1,0.7-2.3,1.4-3.5,1.9c-1.3,0.5-2.7,0.9-4.1,1.1c-1.5,0.2-3.2,0.4-5.1,0.4
            c-3,0-5.9-0.6-8.5-1.6c-2.6-1.1-4.9-2.7-6.8-4.7c-1.9-2-3.4-4.6-4.5-7.5c-1.1-2.9-1.6-6.3-1.6-10c0-3.6,0.5-6.9,1.6-9.9
            c1.1-2.9,2.6-5.5,4.6-7.5c2-2.1,4.3-3.7,7-4.8c2.7-1.1,5.7-1.7,8.9-1.7c1.7,0,3.3,0.1,4.7,0.4c1.4,0.3,2.6,0.6,3.7,1
            c1.1,0.4,2,0.8,2.8,1.3c0.8,0.5,1.4,0.9,1.9,1.3c0.5,0.4,1,0.7,1.3,1c0.3,0.3,0.5,0.3,0.5,0.3c0.3,0,0.4-0.1,0.4-0.2l0.8-1.2
            c-1-0.9-2-1.6-3-2.3c-1.2-0.8-2.4-1.4-3.7-1.9c-1.3-0.5-2.8-0.9-4.3-1.2C355.7,25.9,354,25.7,352.2,25.7z"/>
		</g>
		<g>
			<path class="st1" d="M410.3,25.7v3.1H383v21h22.7v3H383v21.6h27.3v3.1h-31.1V25.7H410.3z"/>
			<path class="st2" d="M410.9,78.2h-32.3V25.1h32.3v4.3h-27.3v19.7h22.7v4.3h-22.7v20.4h27.3V78.2z M379.8,77h29.9v-1.9h-27.3V52.2
            h22.7v-1.8h-22.7V28.2h27.3v-1.9h-29.9V77z"/>
		</g>
		<g>
			<path class="st1" d="M456.8,25.1V33h-23.5v15.7h19.8v7.9h-19.8v21.6h-9.9v-53H456.8z"/>
		</g>
		<g>
			<path class="st1" d="M514.3,51.6c0,3.9-0.6,7.5-1.9,10.8c-1.3,3.3-3.1,6.2-5.5,8.6c-2.3,2.4-5.2,4.3-8.5,5.7c-3.3,1.4-7,2-11,2
            c-4,0-7.7-0.7-11-2c-3.3-1.4-6.1-3.2-8.5-5.7c-2.4-2.4-4.2-5.3-5.5-8.6s-1.9-6.9-1.9-10.8s0.6-7.5,1.9-10.8
            c1.3-3.3,3.1-6.2,5.5-8.6c2.4-2.4,5.2-4.3,8.5-5.7c3.3-1.4,7-2,11-2c4,0,7.7,0.7,11,2.1c3.3,1.4,6.1,3.3,8.5,5.7
            c2.3,2.4,4.2,5.3,5.5,8.6C513.6,44.1,514.3,47.7,514.3,51.6z M504.2,51.6c0-2.9-0.4-5.5-1.2-7.8c-0.8-2.3-1.9-4.3-3.3-5.9
            c-1.4-1.6-3.2-2.8-5.3-3.7c-2.1-0.9-4.4-1.3-7-1.3c-2.6,0-4.9,0.4-7,1.3c-2.1,0.9-3.8,2.1-5.3,3.7c-1.5,1.6-2.6,3.6-3.4,5.9
            c-0.8,2.3-1.2,4.9-1.2,7.8s0.4,5.5,1.2,7.8c0.8,2.3,1.9,4.3,3.4,5.9c1.5,1.6,3.2,2.8,5.3,3.7c2.1,0.9,4.4,1.3,7,1.3
            c2.6,0,4.9-0.4,7-1.3c2.1-0.9,3.8-2.1,5.3-3.7c1.4-1.6,2.5-3.6,3.3-5.9C503.8,57.1,504.2,54.5,504.2,51.6z"/>
		</g>
		<g>
			<path class="st1" d="M534.9,50.4l2.3,0c1.9,0,3.5-0.2,4.9-0.7c1.4-0.5,2.5-1.1,3.4-1.9c0.9-0.8,1.6-1.8,2-2.9
            c0.4-1.1,0.7-2.4,0.7-3.7c0-2.7-0.9-4.8-2.7-6.2c-1.8-1.4-4.5-2.2-8.1-2.2H531v17.6v7.1v20.7h-9.9v-53h16.2c3.6,0,6.7,0.4,9.3,1.1
            c2.6,0.7,4.7,1.8,6.3,3.1c1.6,1.3,2.9,3,3.6,4.8c0.8,1.9,1.2,3.9,1.2,6.2c0,1.8-0.3,3.5-0.8,5.1c-0.5,1.6-1.3,3-2.3,4.3
            c-1,1.3-2.2,2.4-3.7,3.4c-1.5,1-3.1,1.8-5,2.3c1.2,0.7,2.3,1.7,3.2,3l13.3,19.6h-8.9c-0.9,0-1.6-0.2-2.2-0.5
            c-0.6-0.3-1.1-0.8-1.5-1.5c0,0-11.1-17-11.1-17c-0.3-0.4-0.9-1.3-1.5-1.4c-1.2,0-2.4,0-3.5,0c0,0,0-6,0-6.4
            C533.8,50.4,534.9,50.4,534.9,50.4z"/>
		</g>
		<g>
			<path class="st1" d="M591.4,70.9c2.2,0,4.2-0.2,5.8-0.6c1.6-0.4,3.2-1,4.7-1.7v-12h-6.6c-0.6,0-1.1-0.2-1.5-0.5
            c-0.4-0.4-0.6-0.8-0.6-1.3v-5.6h17.6V73c-1.3,1-2.7,1.8-4.2,2.5c-1.5,0.7-3,1.3-4.7,1.8c-1.7,0.5-3.4,0.8-5.3,1
            c-1.9,0.2-3.9,0.3-6.1,0.3c-3.9,0-7.4-0.7-10.7-2c-3.3-1.3-6.1-3.2-8.4-5.6c-2.4-2.4-4.2-5.3-5.6-8.6c-1.3-3.3-2-7-2-10.9
            c0-4,0.6-7.6,1.9-11c1.3-3.3,3.1-6.2,5.5-8.6c2.4-2.4,5.3-4.3,8.7-5.6c3.4-1.3,7.2-2,11.4-2c4.3,0,8.1,0.6,11.2,1.9
            c3.2,1.3,5.8,3,8,5l-2.9,4.5c-0.6,0.9-1.3,1.4-2.2,1.4c-0.6,0-1.2-0.2-1.8-0.6c-0.8-0.5-1.6-0.9-2.4-1.4c-0.8-0.5-1.7-0.9-2.7-1.2
            c-1-0.3-2.1-0.6-3.3-0.8c-1.2-0.2-2.7-0.3-4.3-0.3c-2.6,0-5,0.4-7.1,1.3c-2.1,0.9-3.9,2.1-5.4,3.8c-1.5,1.6-2.6,3.6-3.4,5.9
            c-0.8,2.3-1.2,4.9-1.2,7.7c0,3.1,0.4,5.8,1.3,8.2c0.9,2.4,2.1,4.4,3.6,6s3.4,2.9,5.5,3.8S588.9,70.9,591.4,70.9z"/>
		</g>
		<g>
			<path class="st1" d="M645.7,56.8h-16.1v13.4H653v7.9h-33.4v-53H653V33h-23.5v16.3H648v5.8C648,55.1,647.9,56.8,645.7,56.8z"/>
		</g>
	</g>
</svg>
