<?xml version="1.0" encoding="UTF-8"?>
<svg xmlns="http://www.w3.org/2000/svg" viewBox="-0.001931647947148285 -0.5831467598558726 286.0572555076589 91.08314675985588" width="2500" height="801">
  <circle cx="238.236" cy="17.302" fill="#fff" r="10.647" />
  <g fill="#fff">
    <path d="M86.817 62.554c5.183 0 8.2-3.876 7.976-7.69a25.549 25.549 0 0 0-.534-4.292C91.081 36.8 79.879 26.619 66.546 26.619c-15.8 0-28.615 14.3-28.615 31.942S50.743 90.5 66.546 90.5c9.9 0 16.97-3.605 22.116-9.256a6.154 6.154 0 0 0-1.012-9.2c-2.485-1.727-5.631-1.145-7.943.807-2.207 1.863-6.423 5.676-13.161 5.676-8.048 0-14.761-6.859-16.3-15.971zM66.546 38.6c7.243 0 13.4 5.556 15.687 13.309H50.86C53.144 44.153 59.3 38.6 66.546 38.6zM38.6 32.81a5.986 5.986 0 0 0-5-5.9c-8.721-1.315-16.873 1.941-21.615 7.836v-.8A5.989 5.989 0 1 0 0 33.939v49.01a6.145 6.145 0 0 0 5.619 6.212 5.989 5.989 0 0 0 6.359-5.978V57.9c0-11.188 8.414-20.374 19.96-19.126a5.373 5.373 0 0 0 1.183 0A5.987 5.987 0 0 0 38.6 32.81zM244.225 39.262a5.989 5.989 0 0 0-11.978 0v43.921a5.989 5.989 0 0 0 11.978 0zM155.053 5.989A5.989 5.989 0 0 0 149.064 0a5.989 5.989 0 0 0-5.989 5.989v26.746a20.892 20.892 0 0 0-15.306-6.116c-15.8 0-28.615 14.3-28.615 31.942S111.965 90.5 127.769 90.5a21.154 21.154 0 0 0 15.415-6.193 5.988 5.988 0 0 0 11.869-1.127zm-27.284 72.536c-9.188 0-16.637-8.939-16.637-19.964S118.581 38.6 127.769 38.6s16.636 8.938 16.636 19.964-7.448 19.961-16.636 19.961zM217.606 5.989A5.989 5.989 0 0 0 211.617 0a5.989 5.989 0 0 0-5.989 5.989v26.746a20.889 20.889 0 0 0-15.306-6.116c-15.8 0-28.614 14.3-28.614 31.942S174.519 90.5 190.322 90.5a21.156 21.156 0 0 0 15.416-6.193 5.987 5.987 0 0 0 11.868-1.127zm-27.284 72.536c-9.188 0-16.636-8.939-16.636-19.964S181.134 38.6 190.322 38.6s16.637 8.938 16.637 19.964-7.448 19.961-16.637 19.961zM274.654 83.183V38.6h5.324a5.445 5.445 0 0 0 5.494-4.969 5.325 5.325 0 0 0-5.312-5.679h-5.506V19.5a6.126 6.126 0 0 0-5.591-6.182 5.989 5.989 0 0 0-6.387 5.976v8.651h-4.959a5.445 5.445 0 0 0-5.495 4.97 5.324 5.324 0 0 0 5.312 5.678h5.142v44.59a5.989 5.989 0 0 0 5.989 5.989 5.989 5.989 0 0 0 5.989-5.989z" />
  </g>
</svg>
